# Blender 5.0.1
# www.blender.org
mtllib missile_Aspid10.mtl
o missile_aspid10
v -1.173526 -0.000000 -0.000000
v -1.114947 -0.000000 -0.141421
v -0.973526 -0.000000 -0.200000
v -1.158302 0.047302 -0.061919
v -1.114947 0.087403 -0.114412
v -1.050063 0.114198 -0.149487
v -0.973526 0.123607 -0.161803
v -1.158302 0.076537 -0.023651
v -1.114947 0.141421 -0.043702
v -1.050063 0.184776 -0.057099
v -0.973526 0.200000 -0.061803
v -1.158302 0.076537 0.023651
v -1.114947 0.141421 0.043702
v -1.050063 0.184776 0.057099
v -0.973526 0.200000 0.061803
v -1.158302 0.047302 0.061919
v -1.114947 0.087403 0.114412
v -1.050063 0.114198 0.149487
v -0.973526 0.123607 0.161803
v -1.158302 -0.000000 0.076537
v -1.114947 -0.000000 0.141421
v -1.050063 -0.000000 0.184776
v -0.973526 -0.000000 0.200000
v -1.158302 -0.047302 0.061919
v -1.114947 -0.087403 0.114412
v -1.050063 -0.114198 0.149487
v -0.973526 -0.123607 0.161803
v -1.158302 -0.076537 0.023651
v -1.114947 -0.141421 0.043702
v -1.050063 -0.184776 0.057099
v -0.973526 -0.200000 0.061803
v -1.158302 -0.076537 -0.023651
v -1.114947 -0.141421 -0.043702
v -1.050063 -0.184776 -0.057099
v -0.973526 -0.200000 -0.061803
v -1.158302 -0.047302 -0.061919
v -1.114947 -0.087403 -0.114412
v -1.050063 -0.114198 -0.149487
v -0.973526 -0.123607 -0.161803
v -1.158302 -0.000000 -0.076537
v -1.050063 -0.000000 -0.184776
v 1.531871 0.000000 -0.200000
v -0.969803 0.000000 -0.200000
v 1.531871 0.123607 -0.161803
v -0.969803 0.123607 -0.161803
v 1.531871 0.200000 -0.061803
v -0.969803 0.200000 -0.061803
v 1.531871 0.200000 0.061803
v -0.969803 0.200000 0.061803
v 1.531871 0.123607 0.161803
v -0.969803 0.123607 0.161803
v 1.531871 0.000000 0.200000
v -0.969803 0.000000 0.200000
v 1.531871 -0.123607 0.161803
v -0.969803 -0.123607 0.161803
v 1.531871 -0.200000 0.061803
v -0.969803 -0.200000 0.061803
v 1.531871 -0.200000 -0.061803
v -0.969803 -0.200000 -0.061803
v 1.531871 -0.123607 -0.161803
v -0.969803 -0.123607 -0.161803
v 0.813305 0.000000 -0.200000
v 0.813305 0.123607 -0.161803
v 0.813305 0.200000 -0.061803
v 0.813305 0.200000 0.061803
v 0.813305 0.123607 0.161803
v 0.813305 0.000000 0.200000
v 0.813305 -0.123607 0.161803
v 0.813305 -0.200000 0.061803
v 0.813305 -0.200000 -0.061803
v 0.813305 -0.123607 -0.161803
v 1.637309 0.000000 -0.154611
v 1.637309 0.095555 -0.125083
v 1.637309 0.154611 -0.047777
v 1.637309 0.154611 0.047777
v 1.637309 0.095555 0.125083
v 1.637309 0.000000 0.154611
v 1.637309 -0.095555 0.125083
v 1.637309 -0.154611 0.047777
v 1.637309 -0.154611 -0.047777
v 1.637309 -0.095555 -0.125083
v 1.401453 0.000000 -0.117930
v 1.401453 0.072885 -0.095407
v 1.401453 0.117930 -0.036442
v 1.401453 0.117930 0.036442
v 1.401453 0.072885 0.095407
v 1.401453 0.000000 0.117930
v 1.401453 -0.072885 0.095407
v 1.401453 -0.117930 0.036442
v 1.401453 -0.117930 -0.036442
v 1.401453 -0.072885 -0.095407
vn -0.8195 0.1692 -0.5476
vn -0.5381 0.2489 -0.8053
vn -0.9790 0.0602 -0.1947
vn -0.1867 0.2901 -0.9386
vn -0.5487 0.6643 -0.5075
vn -0.9801 0.1577 -0.1205
vn -0.1918 0.7799 -0.5958
vn -0.8268 0.4470 -0.3414
vn -0.1951 0.9808 -0.0000
vn -0.8315 0.5556 -0.0000
vn -0.5556 0.8315 -0.0000
vn -0.9808 0.1951 -0.0000
vn -0.1918 0.7799 0.5958
vn -0.8268 0.4470 0.3414
vn -0.5487 0.6643 0.5075
vn -0.9801 0.1577 0.1205
vn -0.5381 0.2489 0.8053
vn -0.9790 0.0602 0.1947
vn -0.1867 0.2901 0.9386
vn -0.8195 0.1692 0.5476
vn -0.5381 -0.2489 0.8053
vn -0.9790 -0.0602 0.1947
vn -0.1867 -0.2901 0.9386
vn -0.8195 -0.1692 0.5476
vn -0.1918 -0.7799 0.5958
vn -0.8268 -0.4470 0.3414
vn -0.5487 -0.6643 0.5075
vn -0.9801 -0.1577 0.1205
vn -0.8315 -0.5556 -0.0000
vn -0.5556 -0.8315 -0.0000
vn -0.9808 -0.1951 -0.0000
vn -0.1951 -0.9808 -0.0000
vn -0.5487 -0.6643 -0.5075
vn -0.9801 -0.1577 -0.1205
vn -0.1918 -0.7799 -0.5958
vn -0.8268 -0.4470 -0.3414
vn -0.9790 -0.0602 -0.1947
vn -0.1867 -0.2901 -0.9386
vn -0.8195 -0.1692 -0.5476
vn -0.5381 -0.2489 -0.8053
vn -0.0000 0.2952 -0.9554
vn -0.0000 0.7947 -0.6071
vn -0.0000 1.0000 -0.0000
vn -0.0000 0.7947 0.6071
vn -0.0000 0.2952 0.9554
vn -0.0000 -0.2952 0.9554
vn -0.0000 -0.7947 0.6071
vn -0.0000 -1.0000 -0.0000
vn -1.0000 -0.0000 -0.0000
vn -0.0000 -0.7947 -0.6071
vn -0.0000 -0.2952 -0.9554
vn 0.3804 0.2730 0.8836
vn 0.1537 0.9881 -0.0000
vn 0.3895 0.7319 0.5591
vn 0.3804 0.2730 -0.8836
vn 0.3954 0.9185 -0.0000
vn 0.3895 0.7319 -0.5591
vn 0.3804 -0.2730 -0.8836
vn 0.3895 -0.7319 -0.5591
vn 0.3954 -0.9185 -0.0000
vn 0.3895 -0.7319 0.5591
vn 0.3804 -0.2730 0.8836
vn 1.0000 -0.0000 -0.0000
vn 0.1470 -0.2920 -0.9450
vn 0.1510 -0.7855 0.6001
vn 0.1510 0.7855 0.6001
vn 0.1470 0.2920 -0.9450
vn 0.1537 -0.9881 -0.0000
vn 0.1470 0.2920 0.9450
vn 0.1510 0.7855 -0.6001
vn 0.1510 -0.7855 -0.6001
vn 0.1470 -0.2920 0.9450
vt 0.700000 0.750000
vt 0.700000 0.875000
vt 0.600000 0.875000
vt 0.600000 0.750000
vt 0.700000 0.625000
vt 0.600000 0.625000
vt 0.650000 1.000000
vt 0.700000 0.500000
vt 0.600000 0.500000
vt 0.500000 0.750000
vt 0.500000 0.625000
vt 0.550000 1.000000
vt 0.500000 0.875000
vt 0.500000 0.500000
vt 0.400000 0.625000
vt 0.400000 0.500000
vt 0.400000 0.875000
vt 0.400000 0.750000
vt 0.450000 1.000000
vt 0.300000 0.625000
vt 0.300000 0.500000
vt 0.300000 0.875000
vt 0.300000 0.750000
vt 0.350000 1.000000
vt 0.200000 0.750000
vt 0.200000 0.625000
vt 0.250000 1.000000
vt 0.200000 0.875000
vt 0.200000 0.500000
vt 0.100000 0.750000
vt 0.100000 0.625000
vt 0.150000 1.000000
vt 0.100000 0.875000
vt 0.100000 0.500000
vt 0.000000 0.625000
vt 0.000000 0.500000
vt 0.000000 0.875000
vt 0.000000 0.750000
vt 0.050000 1.000000
vt 1.000000 0.750000
vt 1.000000 0.875000
vt 0.900000 0.875000
vt 0.900000 0.750000
vt 1.000000 0.625000
vt 0.900000 0.625000
vt 0.950000 1.000000
vt 1.000000 0.500000
vt 0.900000 0.500000
vt 0.800000 0.750000
vt 0.800000 0.625000
vt 0.850000 1.000000
vt 0.800000 0.875000
vt 0.800000 0.500000
vt 0.750000 1.000000
vt 1.000000 0.643617
vt 1.000000 1.000000
vt 0.900000 1.000000
vt 0.900000 0.643617
vt 0.800000 1.000000
vt 0.800000 0.643617
vt 0.700000 1.000000
vt 0.700000 0.643617
vt 0.600000 1.000000
vt 0.600000 0.643617
vt 0.500000 1.000000
vt 0.500000 0.643617
vt 0.400000 1.000000
vt 0.400000 0.643617
vt 0.300000 1.000000
vt 0.300000 0.643617
vt 0.200000 1.000000
vt 0.200000 0.643617
vt 0.391068 0.444164
vt 0.250000 0.490000
vt 0.108932 0.444164
vt 0.021746 0.324164
vt 0.021746 0.175836
vt 0.108932 0.055836
vt 0.250000 0.010000
vt 0.391068 0.055836
vt 0.478254 0.175836
vt 0.478254 0.324164
vt 0.100000 1.000000
vt 0.100000 0.643617
vt -0.000000 1.000000
vt -0.000000 0.643617
vt 0.600000 0.500000
vt 0.500000 0.500000
vt 0.100000 0.500000
vt -0.000000 0.500000
vt 0.200000 0.500000
vt 0.300000 0.500000
vt 0.400000 0.500000
vt 0.700000 0.500000
vt 0.800000 0.500000
vt 0.900000 0.500000
vt 1.000000 0.500000
vt 0.750000 0.490000
vt 0.891068 0.444164
vt 0.978254 0.324164
vt 0.978254 0.175836
vt 0.891068 0.055836
vt 0.750000 0.010000
vt 0.608932 0.055836
vt 0.521746 0.175836
vt 0.521746 0.324164
vt 0.608932 0.444164
s 0
f 2/1/1 40/2/1 4/3/1 5/4/1
f 41/5/2 2/1/2 5/4/2 6/6/2
f 40/2/3 1/7/3 4/3/3
f 3/8/4 41/5/4 6/6/4 7/9/4
f 6/6/5 5/4/5 9/10/5 10/11/5
f 4/3/6 1/12/6 8/13/6
f 7/9/7 6/6/7 10/11/7 11/14/7
f 5/4/8 4/3/8 8/13/8 9/10/8
f 11/14/9 10/11/9 14/15/9 15/16/9
f 9/10/10 8/13/10 12/17/10 13/18/10
f 10/11/11 9/10/11 13/18/11 14/15/11
f 8/13/12 1/19/12 12/17/12
f 15/16/13 14/15/13 18/20/13 19/21/13
f 13/18/14 12/17/14 16/22/14 17/23/14
f 14/15/15 13/18/15 17/23/15 18/20/15
f 12/17/16 1/24/16 16/22/16
f 18/20/17 17/23/17 21/25/17 22/26/17
f 16/22/18 1/27/18 20/28/18
f 19/21/19 18/20/19 22/26/19 23/29/19
f 17/23/20 16/22/20 20/28/20 21/25/20
f 22/26/21 21/25/21 25/30/21 26/31/21
f 20/28/22 1/32/22 24/33/22
f 23/29/23 22/26/23 26/31/23 27/34/23
f 21/25/24 20/28/24 24/33/24 25/30/24
f 27/34/25 26/31/25 30/35/25 31/36/25
f 25/30/26 24/33/26 28/37/26 29/38/26
f 26/31/27 25/30/27 29/38/27 30/35/27
f 24/33/28 1/39/28 28/37/28
f 29/40/29 28/41/29 32/42/29 33/43/29
f 30/44/30 29/40/30 33/43/30 34/45/30
f 28/41/31 1/46/31 32/42/31
f 31/47/32 30/44/32 34/45/32 35/48/32
f 34/45/33 33/43/33 37/49/33 38/50/33
f 32/42/34 1/51/34 36/52/34
f 35/48/35 34/45/35 38/50/35 39/53/35
f 33/43/36 32/42/36 36/52/36 37/49/36
f 36/52/37 1/54/37 40/2/37
f 39/53/38 38/50/38 41/5/38 3/8/38
f 37/49/39 36/52/39 40/2/39 2/1/39
f 38/50/40 37/49/40 2/1/40 41/5/40
f 62/55/41 43/56/41 45/57/41 63/58/41
f 63/58/42 45/57/42 47/59/42 64/60/42
f 64/60/43 47/59/43 49/61/43 65/62/43
f 65/62/44 49/61/44 51/63/44 66/64/44
f 66/64/45 51/63/45 53/65/45 67/66/45
f 67/66/46 53/65/46 55/67/46 68/68/46
f 68/68/47 55/67/47 57/69/47 69/70/47
f 69/70/48 57/69/48 59/71/48 70/72/48
f 45/73/49 43/74/49 61/75/49 59/76/49 57/77/49 55/78/49 53/79/49 51/80/49 49/81/49 47/82/49
f 70/72/50 59/71/50 61/83/50 71/84/50
f 71/84/51 61/83/51 43/85/51 62/86/51
f 50/87/52 52/88/52 77/88/52 76/87/52
f 60/89/51 71/84/51 62/86/51 42/90/51
f 58/91/50 70/72/50 71/84/50 60/89/50
f 56/92/48 69/70/48 70/72/48 58/91/48
f 54/93/47 68/68/47 69/70/47 56/92/47
f 52/88/46 67/66/46 68/68/46 54/93/46
f 50/87/45 66/64/45 67/66/45 52/88/45
f 48/94/44 65/62/44 66/64/44 50/87/44
f 46/95/43 64/60/43 65/62/43 48/94/43
f 44/96/42 63/58/42 64/60/42 46/95/42
f 42/97/41 62/55/41 63/58/41 44/96/41
f 79/92/53 80/91/53 90/91/53 89/92/53
f 48/94/54 50/87/54 76/87/54 75/94/54
f 42/97/55 44/96/55 73/96/55 72/97/55
f 46/95/56 48/94/56 75/94/56 74/95/56
f 44/96/57 46/95/57 74/95/57 73/96/57
f 60/89/58 42/90/58 72/90/58 81/89/58
f 58/91/59 60/89/59 81/89/59 80/91/59
f 56/92/60 58/91/60 80/91/60 79/92/60
f 54/93/61 56/92/61 79/92/61 78/93/61
f 52/88/62 54/93/62 78/93/62 77/88/62
f 82/98/63 83/99/63 84/100/63 85/101/63 86/102/63 87/103/63 88/104/63 89/105/63 90/106/63 91/107/63
f 76/87/64 77/88/64 87/88/64 86/87/64
f 73/96/65 74/95/65 84/95/65 83/96/65
f 80/91/66 81/89/66 91/89/66 90/91/66
f 77/88/67 78/93/67 88/93/67 87/88/67
f 74/95/68 75/94/68 85/94/68 84/95/68
f 81/89/69 72/90/69 82/90/69 91/89/69
f 78/93/70 79/92/70 89/92/70 88/93/70
f 75/94/71 76/87/71 86/87/71 85/94/71
f 72/97/72 73/96/72 83/96/72 82/97/72
