# Blender 5.0.1
# www.blender.org
mtllib ship_frame_CB.mtl
o ship_frame_CB
v 8.129290 1.619802 -0.094121
v 8.129290 1.891522 -0.094121
v 8.129290 1.619802 0.105879
v 8.129290 1.891522 0.105879
v 4.537768 1.619802 -0.094120
v 4.537768 1.891522 -0.094120
v 4.537768 1.619802 0.105880
v 4.537768 1.891522 0.105880
v 8.238575 1.627227 2.977224
v 8.238575 1.909888 2.977224
v 8.038574 1.627227 2.977224
v 8.038574 1.909888 2.977224
v 8.238575 1.627227 -3.014298
v 8.238575 1.909888 -3.014298
v 8.038574 1.627227 -3.014298
v 8.038574 1.909888 -3.014298
v 4.603380 1.627227 2.926735
v 4.603380 2.116320 2.926735
v 4.403380 1.627227 2.926735
v 4.403380 2.116320 2.926735
v 4.603380 1.627227 -3.064786
v 4.603380 2.110567 -3.064786
v 4.403380 1.627227 -3.064786
v 4.403380 2.110567 -3.064786
v 4.403380 1.627227 -0.068167
v 4.403380 1.909888 -0.068167
v 4.603380 1.627227 -0.068167
v 4.603380 1.909888 -0.068167
v 4.603380 0.354910 2.838379
v 4.603380 0.637570 2.838379
v 4.403379 0.354910 2.838379
v 4.403379 0.637570 2.838379
v 4.603379 0.354910 -3.153142
v 4.603379 0.637570 -3.153142
v 4.403379 0.354910 -3.153142
v 4.403379 0.637570 -3.153142
v 8.238575 0.354910 3.090823
v 8.238575 0.637570 3.090823
v 8.038574 0.354910 3.090823
v 8.038574 0.637570 3.090823
v 8.238575 0.354910 -2.900698
v 8.238575 0.637570 -2.900698
v 8.038574 0.354910 -2.900698
v 8.038574 0.637570 -2.900698
v 4.631330 2.043147 -6.530017
v 4.631330 2.243147 -6.530017
v 4.431330 2.043147 -6.530016
v 4.431330 2.243147 -6.530016
v 4.631330 2.043147 -2.530017
v 4.631330 2.243147 -2.530017
v 4.431331 2.043147 -2.530017
v 4.431331 2.243147 -2.530017
v 4.631331 2.043147 6.530017
v 4.631331 2.243147 6.530017
v 4.431331 2.043147 6.530017
v 4.431331 2.243147 6.530017
v 4.631330 2.043147 2.530017
v 4.631330 2.243147 2.530017
v 4.431331 2.043147 2.530017
v 4.431331 2.243147 2.530017
v 4.423019 0.484997 -0.084121
v 4.573020 0.484997 -0.084121
v 4.423019 0.484997 0.115879
v 4.573019 0.484997 0.115879
v 4.423020 1.776518 -0.084121
v 4.573020 1.776518 -0.084121
v 4.423020 1.776518 0.115879
v 4.573020 1.776518 0.115879
v 8.059387 0.484997 -0.084121
v 8.209387 0.484997 -0.084121
v 8.059387 0.484997 0.115879
v 8.209387 0.484997 0.115879
v 8.059387 1.776518 -0.084121
v 8.209388 1.776518 -0.084121
v 8.059387 1.776518 0.115879
v 8.209388 1.776518 0.115879
vn 1.0000 -0.0000 -0.0000
vn -0.0000 -0.0000 1.0000
vn -1.0000 -0.0000 -0.0000
vn -0.0000 -0.0000 -1.0000
vn -0.0000 -1.0000 -0.0000
vn -0.0000 1.0000 -0.0000
vn -0.0000 0.9976 -0.0688
vn -0.0000 0.9978 0.0668
vt 0.625000 0.000000
vt 0.375000 0.250000
vt 0.375000 0.000000
vt 0.625000 0.250000
vt 0.375000 0.500000
vt 0.625000 0.500000
vt 0.375000 0.750000
vt 0.625000 0.750000
vt 0.375000 1.000000
vt 0.125000 0.750000
vt 0.125000 0.500000
vt 0.875000 0.750000
vt 0.875000 0.500000
vt 0.625000 0.374964
vt 0.375000 0.374964
vt 0.625000 0.875036
vt 0.375000 0.875036
vt 0.249964 0.750000
vt 0.249964 0.500000
vt 0.750036 0.750000
vt 0.750036 0.500000
vt 0.625000 1.000000
s 0
f 2/1/1 3/2/1 1/3/1
f 4/4/2 7/5/2 3/2/2
f 8/6/3 5/7/3 7/5/3
f 6/8/4 1/9/4 5/7/4
f 7/5/5 1/10/5 3/11/5
f 8/6/6 2/12/6 6/8/6
f 10/1/2 11/2/2 9/3/2
f 12/4/3 15/5/3 11/2/3
f 16/6/4 13/7/4 15/5/4
f 14/8/1 9/9/1 13/7/1
f 15/5/5 9/10/5 11/11/5
f 12/13/6 14/8/6 16/6/6
f 18/1/2 19/2/2 17/3/2
f 26/14/3 23/5/3 25/15/3
f 24/6/4 21/7/4 23/5/4
f 28/16/1 17/9/1 27/17/1
f 23/5/5 27/18/5 25/19/5
f 20/13/7 28/20/7 26/21/7
f 26/21/8 22/8/8 24/6/8
f 25/19/5 17/10/5 19/11/5
f 21/7/1 28/16/1 27/17/1
f 19/2/3 26/14/3 25/15/3
f 30/1/2 31/2/2 29/3/2
f 32/4/3 35/5/3 31/2/3
f 36/6/4 33/7/4 35/5/4
f 34/8/1 29/9/1 33/7/1
f 35/5/5 29/10/5 31/11/5
f 32/13/6 34/8/6 36/6/6
f 38/1/2 39/2/2 37/3/2
f 40/4/3 43/5/3 39/2/3
f 44/6/4 41/7/4 43/5/4
f 42/8/1 37/9/1 41/7/1
f 43/5/5 37/10/5 39/11/5
f 40/13/6 42/8/6 44/6/6
f 47/2/4 46/1/4 45/3/4
f 51/5/3 48/4/3 47/2/3
f 49/7/2 52/6/2 51/5/2
f 45/9/1 50/8/1 49/7/1
f 47/11/5 49/7/5 51/5/5
f 50/8/6 48/13/6 52/6/6
f 54/1/2 55/2/2 53/3/2
f 56/4/3 59/5/3 55/2/3
f 60/6/4 57/7/4 59/5/4
f 58/8/1 53/9/1 57/7/1
f 59/5/5 53/10/5 55/11/5
f 60/6/6 54/12/6 58/8/6
f 61/3/5 64/4/5 63/2/5
f 64/4/2 67/5/2 63/2/2
f 68/6/6 65/7/6 67/5/6
f 66/8/4 61/9/4 65/7/4
f 67/5/3 61/10/3 63/11/3
f 64/13/1 66/8/1 68/6/1
f 70/1/5 71/2/5 69/3/5
f 72/4/2 75/5/2 71/2/2
f 76/6/6 73/7/6 75/5/6
f 74/8/4 69/9/4 73/7/4
f 75/5/3 69/10/3 71/11/3
f 72/13/1 74/8/1 76/6/1
f 2/1/1 4/4/1 3/2/1
f 4/4/2 8/6/2 7/5/2
f 8/6/3 6/8/3 5/7/3
f 6/8/4 2/22/4 1/9/4
f 7/5/5 5/7/5 1/10/5
f 8/6/6 4/13/6 2/12/6
f 10/1/2 12/4/2 11/2/2
f 12/4/3 16/6/3 15/5/3
f 16/6/4 14/8/4 13/7/4
f 14/8/1 10/22/1 9/9/1
f 15/5/5 13/7/5 9/10/5
f 12/13/6 10/12/6 14/8/6
f 18/1/2 20/4/2 19/2/2
f 26/14/3 24/6/3 23/5/3
f 24/6/4 22/8/4 21/7/4
f 28/16/1 18/22/1 17/9/1
f 23/5/5 21/7/5 27/18/5
f 20/13/7 18/12/7 28/20/7
f 26/21/8 28/20/8 22/8/8
f 25/19/5 27/18/5 17/10/5
f 21/7/1 22/8/1 28/16/1
f 19/2/3 20/4/3 26/14/3
f 30/1/2 32/4/2 31/2/2
f 32/4/3 36/6/3 35/5/3
f 36/6/4 34/8/4 33/7/4
f 34/8/1 30/22/1 29/9/1
f 35/5/5 33/7/5 29/10/5
f 32/13/6 30/12/6 34/8/6
f 38/1/2 40/4/2 39/2/2
f 40/4/3 44/6/3 43/5/3
f 44/6/4 42/8/4 41/7/4
f 42/8/1 38/22/1 37/9/1
f 43/5/5 41/7/5 37/10/5
f 40/13/6 38/12/6 42/8/6
f 47/2/4 48/4/4 46/1/4
f 51/5/3 52/6/3 48/4/3
f 49/7/2 50/8/2 52/6/2
f 45/9/1 46/22/1 50/8/1
f 47/11/5 45/10/5 49/7/5
f 50/8/6 46/12/6 48/13/6
f 54/1/2 56/4/2 55/2/2
f 56/4/3 60/6/3 59/5/3
f 60/6/4 58/8/4 57/7/4
f 58/8/1 54/22/1 53/9/1
f 59/5/5 57/7/5 53/10/5
f 60/6/6 56/13/6 54/12/6
f 61/3/5 62/1/5 64/4/5
f 64/4/2 68/6/2 67/5/2
f 68/6/6 66/8/6 65/7/6
f 66/8/4 62/22/4 61/9/4
f 67/5/3 65/7/3 61/10/3
f 64/13/1 62/12/1 66/8/1
f 70/1/5 72/4/5 71/2/5
f 72/4/2 76/6/2 75/5/2
f 76/6/6 74/8/6 73/7/6
f 74/8/4 70/22/4 69/9/4
f 75/5/3 73/7/3 69/10/3
f 72/13/1 70/12/1 74/8/1
