# Blender 5.0.1
# www.blender.org
mtllib ship_laser_R.mtl
o ship_laser_R
v -6.389878 0.142903 -4.573085
v -6.389878 0.028826 -4.550394
v -10.405550 0.142903 -4.573083
v -6.389878 0.256980 -4.550394
v -6.330164 0.142903 -4.528337
v -6.330164 0.045950 -4.509052
v -6.330164 0.239855 -4.509052
v -6.292464 0.142903 -4.468684
v -6.292464 0.068779 -4.453940
v -6.292464 0.217027 -4.453940
v -6.255398 0.142903 -4.355300
v -6.255398 0.112169 -4.349186
v -6.255398 0.173637 -4.349186
v -6.255398 0.199692 -4.331777
v -6.255398 0.217101 -4.305722
v -6.292464 0.279867 -4.411952
v -6.292464 0.321855 -4.349112
v -6.330164 0.322048 -4.454133
v -6.330164 0.376967 -4.371941
v -6.389878 0.353690 -4.485775
v -6.389878 0.418309 -4.389065
v -10.405550 0.353689 -4.485772
v -10.405550 0.418309 -4.389063
v -10.405550 0.256980 -4.550392
v -10.512326 0.309986 -4.442069
v -10.512326 0.361207 -4.365410
v -10.512326 0.233328 -4.493290
v -10.570000 0.309986 -4.442069
v -10.570000 0.361207 -4.365410
v -10.570000 0.233328 -4.493290
v -10.570000 0.224986 -4.357069
v -10.570000 0.250150 -4.319409
v -10.570000 0.187326 -4.382233
v -10.885984 0.224986 -4.357069
v -10.885984 0.250150 -4.319408
v -10.885984 0.187326 -4.382233
v -11.043554 0.194947 -4.327030
v -11.043554 0.210902 -4.303152
v -11.043554 0.171069 -4.342985
v -12.712418 0.194948 -4.327030
v -12.712418 0.210903 -4.303151
v -12.712418 0.171070 -4.342985
v -12.712418 0.142903 -4.348588
v -12.712418 0.114737 -4.342985
v -11.043554 0.142903 -4.348588
v -11.043554 0.114736 -4.342985
v -10.885984 0.142903 -4.391069
v -10.885984 0.098480 -4.382233
v -10.570000 0.142903 -4.391069
v -10.570000 0.098480 -4.382233
v -10.570000 0.142903 -4.511277
v -10.570000 0.052478 -4.493290
v -10.512326 0.142903 -4.511277
v -10.512326 0.052478 -4.493290
v -10.512326 -0.024180 -4.442069
v -10.405550 0.028826 -4.550392
v -10.405550 -0.067884 -4.485772
v -6.389878 -0.067884 -4.485775
v -10.405550 -0.132503 -4.389063
v -6.389878 -0.132503 -4.389065
v -10.405550 -0.155195 -4.274986
v -10.512326 -0.075402 -4.365410
v -10.512326 -0.093389 -4.274986
v -10.570000 -0.075402 -4.365410
v -10.570000 -0.024180 -4.442069
v -10.570000 -0.093389 -4.274986
v -10.570000 0.035656 -4.319409
v -10.570000 0.060819 -4.357069
v -10.570000 0.026819 -4.274986
v -10.885984 0.035656 -4.319408
v -10.885984 0.060819 -4.357069
v -10.885984 0.026819 -4.274985
v -11.043554 0.074903 -4.303152
v -11.043554 0.090858 -4.327030
v -11.043554 0.069300 -4.274985
v -12.712418 0.074904 -4.303151
v -12.712418 0.090859 -4.327030
v -12.712418 0.069301 -4.274985
v -12.712418 0.074904 -4.246819
v -12.712418 0.090859 -4.222940
v -11.043554 0.074903 -4.246819
v -11.043554 0.090858 -4.222940
v -10.885984 0.035656 -4.230562
v -10.885984 0.060819 -4.192902
v -10.570000 0.035656 -4.230563
v -10.570000 0.060819 -4.192903
v -10.570000 -0.075402 -4.184561
v -10.570000 -0.024180 -4.107903
v -10.512326 -0.075402 -4.184561
v -10.512326 -0.024180 -4.107903
v -10.405550 -0.132503 -4.160909
v -6.389878 -0.132503 -4.160911
v -10.405550 -0.067884 -4.064199
v -6.389878 -0.067884 -4.064201
v -10.405550 0.028826 -3.999580
v -6.389878 0.028826 -3.999582
v -10.405550 0.142903 -3.976888
v -10.512326 0.052478 -4.056681
v -10.512326 0.142903 -4.038694
v -10.570000 0.052478 -4.056681
v -10.570000 0.142903 -4.038694
v -10.570000 0.098480 -4.167738
v -10.570000 0.142903 -4.158902
v -10.885984 0.098480 -4.167738
v -10.885984 0.142903 -4.158902
v -11.043554 0.114736 -4.206986
v -11.043554 0.142903 -4.201383
v -12.712418 0.114737 -4.206985
v -12.712418 0.142903 -4.201383
v -12.712418 0.171070 -4.206985
v -12.712418 0.194948 -4.222940
v -11.043554 0.171069 -4.206986
v -11.043554 0.194947 -4.222940
v -10.885984 0.187326 -4.167738
v -10.885984 0.224986 -4.192902
v -10.570000 0.187326 -4.167738
v -10.570000 0.224986 -4.192903
v -10.570000 0.233328 -4.056681
v -10.570000 0.309986 -4.107903
v -10.512326 0.233328 -4.056681
v -10.512326 0.309986 -4.107903
v -10.405550 0.256980 -3.999580
v -6.389878 0.256980 -3.999582
v -10.405550 0.353689 -4.064199
v -6.389878 0.353690 -4.064201
v -10.405550 0.418309 -4.160909
v -6.389878 0.418309 -4.160911
v -10.405550 0.441000 -4.274986
v -10.512326 0.361207 -4.184561
v -10.512326 0.379194 -4.274986
v -10.570000 0.361207 -4.184561
v -10.570000 0.379194 -4.274986
v -10.570000 0.250150 -4.230563
v -10.570000 0.258986 -4.274986
v -10.885984 0.250150 -4.230562
v -10.885984 0.258986 -4.274985
v -11.043554 0.210902 -4.246819
v -11.043554 0.216505 -4.274985
v -12.712418 0.210903 -4.246819
v -12.712418 0.216506 -4.274985
v -6.389878 0.441000 -4.274988
v -6.330164 0.396252 -4.274988
v -6.330164 0.376967 -4.178036
v -6.292464 0.336599 -4.274988
v -6.292464 0.321855 -4.200864
v -6.255398 0.223215 -4.274988
v -6.255398 0.217101 -4.244254
v -6.255398 0.199692 -4.218199
v -6.255398 0.173637 -4.200789
v -6.292464 0.279867 -4.138024
v -6.292464 0.217027 -4.096036
v -6.330164 0.322048 -4.095843
v -6.330164 0.239855 -4.040924
v -6.330164 0.142903 -4.021639
v -6.330164 0.045950 -4.040924
v -6.389878 0.142903 -3.976891
v -6.292464 0.142903 -4.081292
v -6.292464 0.068779 -4.096036
v -6.255398 0.142903 -4.194676
v -6.255398 0.112169 -4.200789
v -6.255398 0.086114 -4.218199
v -6.255398 0.068705 -4.244254
v -6.292464 0.005939 -4.138024
v -6.292464 -0.036049 -4.200864
v -6.330164 -0.036242 -4.095843
v -6.330164 -0.091161 -4.178036
v -6.330164 -0.110446 -4.274988
v -6.330164 -0.091161 -4.371941
v -6.389878 -0.155194 -4.274988
v -6.292464 -0.050793 -4.274988
v -6.292464 -0.036049 -4.349112
v -6.255398 0.062591 -4.274988
v -6.255398 0.068705 -4.305722
v -6.255398 0.086114 -4.331777
v -6.292464 0.005939 -4.411952
v -6.330164 -0.036242 -4.454133
vn 0.5922 -0.1572 -0.7903
vn -0.0000 -0.1951 -0.9808
vn -0.0000 0.1951 -0.9808
vn 0.5922 0.1572 -0.7903
vn 0.8406 -0.1057 -0.5312
vn 0.8406 0.1057 -0.5312
vn 0.9487 -0.0617 -0.3101
vn 0.9487 0.0617 -0.3101
vn 1.0000 -0.0000 -0.0000
vn 0.9487 0.1757 -0.2629
vn 0.9487 0.2629 -0.1757
vn 0.8406 0.4504 -0.3009
vn 0.8406 0.3009 -0.4504
vn 0.5922 0.6700 -0.4477
vn 0.5922 0.4477 -0.6700
vn -0.0000 0.8315 -0.5556
vn -0.0000 0.5556 -0.8315
vn -0.4937 0.7231 -0.4831
vn -0.4937 0.4831 -0.7231
vn -1.0000 -0.0000 -0.0000
vn -0.2556 0.8038 -0.5371
vn -0.2556 0.5371 -0.8038
vn -0.2556 -0.1886 -0.9482
vn -0.2556 0.1886 -0.9482
vn -0.4937 -0.1697 -0.8529
vn -0.4937 0.1697 -0.8529
vn -0.0000 -0.5556 -0.8315
vn -0.4937 -0.4831 -0.7231
vn -0.0000 -0.8315 -0.5556
vn -0.4937 -0.7231 -0.4831
vn -0.0000 -0.9808 -0.1951
vn -0.4937 -0.8529 -0.1697
vn -0.2556 -0.8038 -0.5371
vn -0.2556 -0.9482 -0.1886
vn -0.0000 -0.9808 0.1951
vn -0.0000 -0.8315 0.5556
vn -0.2556 -0.9482 0.1886
vn -0.2556 -0.8038 0.5371
vn -0.4937 -0.8529 0.1697
vn -0.4937 -0.7231 0.4831
vn -0.0000 -0.5556 0.8315
vn -0.4937 -0.4831 0.7231
vn -0.0000 -0.1951 0.9808
vn -0.4937 -0.1697 0.8529
vn -0.2556 -0.5371 0.8038
vn -0.2556 -0.1886 0.9482
vn -0.0000 0.1951 0.9808
vn -0.0000 0.5556 0.8315
vn -0.2556 0.1886 0.9482
vn -0.2556 0.5371 0.8038
vn -0.4937 0.1697 0.8529
vn -0.4937 0.4831 0.7231
vn -0.0000 0.8315 0.5556
vn -0.4937 0.7231 0.4831
vn -0.0000 0.9808 0.1951
vn -0.4937 0.8529 0.1697
vn -0.2556 0.8038 0.5371
vn -0.2556 0.9482 0.1886
vn -0.0000 0.9808 -0.1951
vn -0.2556 0.9482 -0.1886
vn -0.4937 0.8529 -0.1697
vn 0.5922 0.7903 0.1572
vn 0.5922 0.7903 -0.1572
vn 0.8406 0.5312 0.1057
vn 0.8406 0.5312 -0.1057
vn 0.9487 0.3101 0.0617
vn 0.9487 0.3101 -0.0617
vn 0.9487 0.2629 0.1757
vn 0.9487 0.1757 0.2629
vn 0.8406 0.3009 0.4504
vn 0.8406 0.4504 0.3009
vn 0.5922 0.4477 0.6700
vn 0.5922 0.6700 0.4477
vn 0.8406 0.1057 0.5312
vn 0.5922 0.1572 0.7903
vn 0.5922 -0.1572 0.7903
vn 0.8406 -0.1057 0.5312
vn 0.9487 -0.0617 0.3101
vn 0.9487 0.0617 0.3101
vn 0.9487 -0.1757 0.2629
vn 0.9487 -0.2629 0.1757
vn 0.8406 -0.4504 0.3009
vn 0.8406 -0.3009 0.4504
vn 0.5922 -0.6700 0.4477
vn 0.5922 -0.4477 0.6700
vn 0.8406 -0.5312 0.1057
vn 0.5922 -0.7903 0.1572
vn 0.8406 -0.5312 -0.1057
vn 0.5922 -0.7903 -0.1572
vn 0.9487 -0.3101 -0.0617
vn 0.9487 -0.3101 0.0617
vn 0.9487 -0.2629 -0.1757
vn 0.9487 -0.1757 -0.2629
vn 0.8406 -0.3009 -0.4504
vn 0.8406 -0.4504 -0.3009
vn 0.5922 -0.4477 -0.6700
vn 0.5922 -0.6700 -0.4477
vn -0.2556 -0.5371 -0.8038
vn -1.0000 -0.0000 -0.0001
vn -1.0000 -0.0000 0.0001
vt 1.000000 0.500000
vt 0.937500 0.500000
vt 1.000000 1.000000
vt 0.000000 0.500000
vt 0.062500 1.000000
vt 0.062500 0.500000
vt 0.658156 0.028269
vt 0.971731 0.158156
vt 0.841844 0.471731
vt 0.125000 0.500000
vt 0.187500 0.500000
vt 0.187500 1.000000
vt 0.125000 1.000000
vt 0.250000 0.010000
vt 0.010000 0.250000
vt 0.250000 0.490000
vt 0.000000 1.000000
vt 0.937500 1.000000
vt 0.875000 1.000000
vt 0.875000 0.500000
vt 0.812500 0.500000
vt 0.812500 1.000000
vt 0.750000 0.500000
vt 0.750000 1.000000
vt 0.687500 1.000000
vt 0.625000 1.000000
vt 0.687500 0.500000
vt 0.625000 0.500000
vt 0.562500 0.500000
vt 0.562500 1.000000
vt 0.500000 0.500000
vt 0.500000 1.000000
vt 0.437500 1.000000
vt 0.375000 1.000000
vt 0.437500 0.500000
vt 0.375000 0.500000
vt 0.312500 0.500000
vt 0.312500 1.000000
vt 0.250000 0.500000
vt 0.250000 1.000000
vt 0.750000 0.490000
vt 0.658156 0.471731
vt 0.580294 0.419706
vt 0.528269 0.341844
vt 0.510000 0.250000
vt 0.528269 0.158156
vt 0.580294 0.080294
vt 0.750000 0.010000
vt 0.841844 0.028269
vt 0.919706 0.080294
vt 0.990000 0.250000
vt 0.971731 0.341844
vt 0.919706 0.419706
vt 0.341844 0.471731
vt 0.419706 0.419706
vt 0.471731 0.341844
vt 0.490000 0.250000
vt 0.471731 0.158156
vt 0.419706 0.080294
vt 0.341844 0.028269
vt 0.158156 0.028269
vt 0.080294 0.080294
vt 0.028269 0.158156
vt 0.028269 0.341844
vt 0.080294 0.419706
vt 0.158156 0.471731
s 0
f 5/1/1 2/2/1 1/1/1
f 2/2/2 3/3/2 1/1/2
f 1/4/3 24/5/3 4/6/3
f 4/6/4 5/4/4 1/4/4
f 8/1/5 6/2/5 5/1/5
f 7/6/6 8/4/6 5/4/6
f 8/1/7 12/2/7 9/2/7
f 13/6/8 8/4/8 10/6/8
f 149/7/9 162/8/9 12/9/9
f 16/10/10 13/6/10 10/6/10
f 17/11/11 14/10/11 16/10/11
f 19/11/12 16/10/12 18/10/12
f 16/10/13 7/6/13 18/10/13
f 19/11/14 20/10/14 21/11/14
f 20/10/15 7/6/15 4/6/15
f 20/10/16 23/12/16 21/11/16
f 4/6/17 22/13/17 20/10/17
f 25/13/18 23/12/18 22/13/18
f 24/5/19 25/13/19 22/13/19
f 28/13/16 26/12/16 25/13/16
f 27/5/17 28/13/17 25/13/17
f 28/13/20 32/12/20 29/12/20
f 33/5/20 28/13/20 30/5/20
f 34/13/16 32/12/16 31/13/16
f 36/5/17 31/13/17 33/5/17
f 37/13/21 35/12/21 34/13/21
f 39/5/22 34/13/22 36/5/22
f 40/13/16 38/12/16 37/13/16
f 39/5/17 40/13/17 37/13/17
f 109/14/20 140/15/20 43/16/20
f 43/17/3 39/5/3 45/17/3
f 44/18/2 45/3/2 46/18/2
f 46/18/23 47/3/23 48/18/23
f 47/17/24 39/5/24 36/5/24
f 48/18/2 49/3/2 50/18/2
f 49/17/3 36/5/3 33/5/3
f 50/18/20 51/3/20 52/18/20
f 51/17/20 33/5/20 30/5/20
f 52/18/2 53/3/2 54/18/2
f 51/17/3 27/5/3 53/17/3
f 56/18/25 53/3/25 3/3/25
f 53/17/26 24/5/26 3/17/26
f 65/19/27 54/18/27 55/19/27
f 55/19/28 56/18/28 57/19/28
f 58/20/27 56/18/27 2/2/27
f 60/21/29 57/19/29 58/20/29
f 59/22/30 55/19/30 57/19/30
f 169/23/31 59/22/31 60/21/31
f 61/24/32 62/22/32 59/22/32
f 64/22/29 55/19/29 62/22/29
f 66/24/31 62/22/31 63/24/31
f 67/22/20 65/19/20 64/22/20
f 69/24/20 64/22/20 66/24/20
f 70/22/29 68/19/29 67/22/29
f 69/24/31 70/22/31 67/22/31
f 70/22/33 74/19/33 71/19/33
f 72/24/34 73/22/34 70/22/34
f 76/22/29 74/19/29 73/22/29
f 78/24/31 73/22/31 75/24/31
f 81/25/35 78/24/35 75/24/35
f 80/26/36 81/25/36 82/26/36
f 81/25/37 72/24/37 83/25/37
f 82/26/38 83/25/38 84/26/38
f 83/25/35 69/24/35 85/25/35
f 84/26/36 85/25/36 86/26/36
f 85/25/20 66/24/20 87/25/20
f 86/26/20 87/25/20 88/26/20
f 89/25/35 66/24/35 63/24/35
f 88/26/36 89/25/36 90/26/36
f 89/25/39 61/24/39 91/25/39
f 90/26/40 91/25/40 93/26/40
f 92/27/35 61/24/35 169/23/35
f 94/28/36 91/25/36 92/27/36
f 96/29/41 93/26/41 94/28/41
f 95/30/42 90/26/42 93/26/42
f 156/31/43 95/30/43 96/29/43
f 97/32/44 98/30/44 95/30/44
f 100/30/41 90/26/41 98/30/41
f 101/32/43 98/30/43 99/32/43
f 102/30/20 88/26/20 100/30/20
f 101/32/20 102/30/20 100/30/20
f 104/30/41 86/26/41 102/30/41
f 105/32/43 102/30/43 103/32/43
f 106/30/45 84/26/45 104/30/45
f 107/32/46 104/30/46 105/32/46
f 108/30/41 82/26/41 106/30/41
f 109/32/43 106/30/43 107/32/43
f 110/33/47 107/32/47 112/33/47
f 111/34/48 112/33/48 113/34/48
f 114/33/49 107/32/49 105/32/49
f 115/34/50 112/33/50 114/33/50
f 114/33/47 103/32/47 116/33/47
f 115/34/48 116/33/48 117/34/48
f 116/33/20 101/32/20 118/33/20
f 119/34/20 116/33/20 118/33/20
f 118/33/47 99/32/47 120/33/47
f 121/34/48 118/33/48 120/33/48
f 120/33/51 97/32/51 122/33/51
f 124/34/52 120/33/52 122/33/52
f 123/35/47 97/32/47 156/31/47
f 125/36/48 122/33/48 123/35/48
f 127/37/53 124/34/53 125/36/53
f 129/38/54 124/34/54 126/38/54
f 141/39/55 126/38/55 127/37/55
f 128/40/56 129/38/56 126/38/56
f 131/38/53 121/34/53 129/38/53
f 132/40/55 129/38/55 130/40/55
f 133/38/20 119/34/20 131/38/20
f 132/40/20 133/38/20 131/38/20
f 135/38/53 117/34/53 133/38/53
f 136/40/55 133/38/55 134/40/55
f 135/38/57 113/34/57 115/34/57
f 138/40/58 135/38/58 136/40/58
f 139/38/53 113/34/53 137/38/53
f 138/40/55 139/38/55 137/38/55
f 38/12/59 140/40/59 138/40/59
f 38/12/60 136/40/60 35/12/60
f 35/12/59 134/40/59 32/12/59
f 32/12/20 132/40/20 29/12/20
f 29/12/59 130/40/59 26/12/59
f 26/12/61 128/40/61 23/12/61
f 21/11/59 128/40/59 141/39/59
f 127/37/62 142/39/62 141/39/62
f 142/39/63 21/11/63 141/39/63
f 145/37/64 142/39/64 143/37/64
f 144/39/65 19/11/65 142/39/65
f 147/37/66 144/39/66 145/37/66
f 146/39/67 17/11/67 144/39/67
f 150/36/68 147/37/68 145/37/68
f 149/35/69 150/36/69 151/35/69
f 151/35/70 152/36/70 153/35/70
f 150/36/71 143/37/71 152/36/71
f 123/35/72 152/36/72 125/36/72
f 125/36/73 143/37/73 127/37/73
f 157/31/74 153/35/74 154/31/74
f 154/31/75 123/35/75 156/31/75
f 155/29/76 156/31/76 96/29/76
f 155/29/77 157/31/77 154/31/77
f 160/29/78 157/31/78 158/29/78
f 159/31/79 151/35/79 157/31/79
f 163/28/80 160/29/80 158/29/80
f 162/27/81 163/28/81 164/27/81
f 166/27/82 163/28/82 165/28/82
f 165/28/83 158/29/83 155/29/83
f 166/27/84 94/28/84 92/27/84
f 165/28/85 96/29/85 94/28/85
f 167/23/86 164/27/86 166/27/86
f 167/23/87 92/27/87 169/23/87
f 168/21/88 170/23/88 167/23/88
f 60/21/89 167/23/89 169/23/89
f 171/21/90 172/23/90 170/23/90
f 170/23/91 162/27/91 164/27/91
f 174/20/92 171/21/92 175/20/92
f 12/2/93 175/20/93 9/2/93
f 6/2/94 175/20/94 176/20/94
f 175/20/95 168/21/95 176/20/95
f 6/2/96 58/20/96 2/2/96
f 58/20/97 168/21/97 60/21/97
f 77/19/27 46/18/27 74/19/27
f 71/19/98 46/18/98 48/18/98
f 68/19/27 48/18/27 50/18/27
f 65/19/20 50/18/20 52/18/20
f 5/1/1 6/2/1 2/2/1
f 2/2/2 56/18/2 3/3/2
f 1/4/3 3/17/3 24/5/3
f 4/6/4 7/6/4 5/4/4
f 8/1/5 9/2/5 6/2/5
f 7/6/6 10/6/6 8/4/6
f 8/1/7 11/1/7 12/2/7
f 13/6/8 11/4/8 8/4/8
f 12/9/9 11/41/9 13/42/9
f 13/42/9 14/43/9 15/44/9
f 15/44/9 146/45/9 147/46/9
f 147/46/9 148/47/9 149/7/9
f 149/7/9 159/48/9 160/49/9
f 160/49/9 161/50/9 162/8/9
f 162/8/9 172/51/9 173/52/9
f 173/52/9 174/53/9 12/9/9
f 12/9/9 13/42/9 15/44/9
f 15/44/9 147/46/9 149/7/9
f 149/7/9 160/49/9 162/8/9
f 162/8/9 173/52/9 12/9/9
f 12/9/9 15/44/9 149/7/9
f 16/10/10 14/10/10 13/6/10
f 17/11/11 15/11/11 14/10/11
f 19/11/12 17/11/12 16/10/12
f 16/10/13 10/6/13 7/6/13
f 19/11/14 18/10/14 20/10/14
f 20/10/15 18/10/15 7/6/15
f 20/10/16 22/13/16 23/12/16
f 4/6/17 24/5/17 22/13/17
f 25/13/18 26/12/18 23/12/18
f 24/5/19 27/5/19 25/13/19
f 28/13/16 29/12/16 26/12/16
f 27/5/17 30/5/17 28/13/17
f 28/13/20 31/13/20 32/12/20
f 33/5/20 31/13/20 28/13/20
f 34/13/16 35/12/16 32/12/16
f 36/5/17 34/13/17 31/13/17
f 37/13/21 38/12/21 35/12/21
f 39/5/22 37/13/22 34/13/22
f 40/13/16 41/12/16 38/12/16
f 39/5/17 42/5/17 40/13/17
f 43/16/99 44/54/99 77/55/99
f 77/55/20 76/56/20 78/57/20
f 78/57/20 79/58/20 80/59/20
f 80/59/100 108/60/100 109/14/100
f 109/14/100 110/61/100 111/62/100
f 111/62/20 139/63/20 140/15/20
f 140/15/20 41/64/20 40/65/20
f 40/65/99 42/66/99 43/16/99
f 43/16/20 77/55/20 78/57/20
f 78/57/20 80/59/20 109/14/20
f 109/14/20 111/62/20 140/15/20
f 140/15/20 40/65/20 43/16/20
f 43/16/20 78/57/20 109/14/20
f 43/17/3 42/5/3 39/5/3
f 44/18/2 43/3/2 45/3/2
f 46/18/23 45/3/23 47/3/23
f 47/17/24 45/17/24 39/5/24
f 48/18/2 47/3/2 49/3/2
f 49/17/3 47/17/3 36/5/3
f 50/18/20 49/3/20 51/3/20
f 51/17/20 49/17/20 33/5/20
f 52/18/2 51/3/2 53/3/2
f 51/17/3 30/5/3 27/5/3
f 56/18/25 54/18/25 53/3/25
f 53/17/26 27/5/26 24/5/26
f 65/19/27 52/18/27 54/18/27
f 55/19/28 54/18/28 56/18/28
f 58/20/27 57/19/27 56/18/27
f 60/21/29 59/22/29 57/19/29
f 59/22/30 62/22/30 55/19/30
f 169/23/31 61/24/31 59/22/31
f 61/24/32 63/24/32 62/22/32
f 64/22/29 65/19/29 55/19/29
f 66/24/31 64/22/31 62/22/31
f 67/22/20 68/19/20 65/19/20
f 69/24/20 67/22/20 64/22/20
f 70/22/29 71/19/29 68/19/29
f 69/24/31 72/24/31 70/22/31
f 70/22/33 73/22/33 74/19/33
f 72/24/34 75/24/34 73/22/34
f 76/22/29 77/19/29 74/19/29
f 78/24/31 76/22/31 73/22/31
f 81/25/35 79/25/35 78/24/35
f 80/26/36 79/25/36 81/25/36
f 81/25/37 75/24/37 72/24/37
f 82/26/38 81/25/38 83/25/38
f 83/25/35 72/24/35 69/24/35
f 84/26/36 83/25/36 85/25/36
f 85/25/20 69/24/20 66/24/20
f 86/26/20 85/25/20 87/25/20
f 89/25/35 87/25/35 66/24/35
f 88/26/36 87/25/36 89/25/36
f 89/25/39 63/24/39 61/24/39
f 90/26/40 89/25/40 91/25/40
f 92/27/35 91/25/35 61/24/35
f 94/28/36 93/26/36 91/25/36
f 96/29/41 95/30/41 93/26/41
f 95/30/42 98/30/42 90/26/42
f 156/31/43 97/32/43 95/30/43
f 97/32/44 99/32/44 98/30/44
f 100/30/41 88/26/41 90/26/41
f 101/32/43 100/30/43 98/30/43
f 102/30/20 86/26/20 88/26/20
f 101/32/20 103/32/20 102/30/20
f 104/30/41 84/26/41 86/26/41
f 105/32/43 104/30/43 102/30/43
f 106/30/45 82/26/45 84/26/45
f 107/32/46 106/30/46 104/30/46
f 108/30/41 80/26/41 82/26/41
f 109/32/43 108/30/43 106/30/43
f 110/33/47 109/32/47 107/32/47
f 111/34/48 110/33/48 112/33/48
f 114/33/49 112/33/49 107/32/49
f 115/34/50 113/34/50 112/33/50
f 114/33/47 105/32/47 103/32/47
f 115/34/48 114/33/48 116/33/48
f 116/33/20 103/32/20 101/32/20
f 119/34/20 117/34/20 116/33/20
f 118/33/47 101/32/47 99/32/47
f 121/34/48 119/34/48 118/33/48
f 120/33/51 99/32/51 97/32/51
f 124/34/52 121/34/52 120/33/52
f 123/35/47 122/33/47 97/32/47
f 125/36/48 124/34/48 122/33/48
f 127/37/53 126/38/53 124/34/53
f 129/38/54 121/34/54 124/34/54
f 141/39/55 128/40/55 126/38/55
f 128/40/56 130/40/56 129/38/56
f 131/38/53 119/34/53 121/34/53
f 132/40/55 131/38/55 129/38/55
f 133/38/20 117/34/20 119/34/20
f 132/40/20 134/40/20 133/38/20
f 135/38/53 115/34/53 117/34/53
f 136/40/55 135/38/55 133/38/55
f 135/38/57 137/38/57 113/34/57
f 138/40/58 137/38/58 135/38/58
f 139/38/53 111/34/53 113/34/53
f 138/40/55 140/40/55 139/38/55
f 38/12/59 41/12/59 140/40/59
f 38/12/60 138/40/60 136/40/60
f 35/12/59 136/40/59 134/40/59
f 32/12/20 134/40/20 132/40/20
f 29/12/59 132/40/59 130/40/59
f 26/12/61 130/40/61 128/40/61
f 21/11/59 23/12/59 128/40/59
f 127/37/62 143/37/62 142/39/62
f 142/39/63 19/11/63 21/11/63
f 145/37/64 144/39/64 142/39/64
f 144/39/65 17/11/65 19/11/65
f 147/37/66 146/39/66 144/39/66
f 146/39/67 15/11/67 17/11/67
f 150/36/68 148/36/68 147/37/68
f 149/35/69 148/36/69 150/36/69
f 151/35/70 150/36/70 152/36/70
f 150/36/71 145/37/71 143/37/71
f 123/35/72 153/35/72 152/36/72
f 125/36/73 152/36/73 143/37/73
f 157/31/74 151/35/74 153/35/74
f 154/31/75 153/35/75 123/35/75
f 155/29/76 154/31/76 156/31/76
f 155/29/77 158/29/77 157/31/77
f 160/29/78 159/31/78 157/31/78
f 159/31/79 149/35/79 151/35/79
f 163/28/80 161/28/80 160/29/80
f 162/27/81 161/28/81 163/28/81
f 166/27/82 164/27/82 163/28/82
f 165/28/83 163/28/83 158/29/83
f 166/27/84 165/28/84 94/28/84
f 165/28/85 155/29/85 96/29/85
f 167/23/86 170/23/86 164/27/86
f 167/23/87 166/27/87 92/27/87
f 168/21/88 171/21/88 170/23/88
f 60/21/89 168/21/89 167/23/89
f 171/21/90 173/21/90 172/23/90
f 170/23/91 172/23/91 162/27/91
f 174/20/92 173/21/92 171/21/92
f 12/2/93 174/20/93 175/20/93
f 6/2/94 9/2/94 175/20/94
f 175/20/95 171/21/95 168/21/95
f 6/2/96 176/20/96 58/20/96
f 58/20/97 176/20/97 168/21/97
f 77/19/27 44/18/27 46/18/27
f 71/19/98 74/19/98 46/18/98
f 68/19/27 71/19/27 48/18/27
f 65/19/20 68/19/20 50/18/20
