# Blender 5.0.1
# www.blender.org
mtllib ship_cockpit.mtl
o ship_cockpit
v -12.990177 0.272275 1.662237
v -12.842855 -0.685555 -1.658727
v -12.990177 0.272275 -1.662238
v -11.760558 -0.058178 -2.770396
v -11.942502 1.124762 1.523718
v -11.760558 -0.058178 2.770396
v -11.659770 -0.713461 1.523718
v -11.551744 0.491942 -2.770396
v -11.551744 0.491942 2.770396
v -12.842855 -0.685555 1.662237
v -10.450844 0.143266 -3.740035
v -10.431834 0.146190 3.740035
v -9.481036 0.308607 4.155593
v -9.484483 0.320553 -4.155594
v -10.432568 0.146077 -3.740035
v -7.630844 2.282089 -6.918100
v -10.582717 1.207271 -3.740035
v -7.634576 2.332719 6.925990
v -10.572438 1.215096 3.740035
v -10.562160 1.222920 -3.740035
v -7.638269 2.330901 -6.925992
v -9.358934 -0.595993 1.970669
v -10.309136 -0.652838 1.800757
v -9.755165 2.768799 1.970669
v -10.722066 2.050201 1.800757
v -11.659770 -0.713461 -1.523718
v -9.358934 -0.595993 -1.970669
v -10.721540 2.050601 -1.800758
v -11.942502 1.124762 -1.523718
v -10.309493 -0.652893 -1.800758
v -9.755383 2.768691 -2.088328
v -7.285248 -0.501159 -1.966748
v -7.285247 -0.501159 1.966748
v -7.305274 2.250968 6.922070
v -7.308967 2.249150 -6.929912
v -7.282594 0.326767 4.151673
v -7.277275 0.338712 -4.159514
v -7.301579 2.252785 -6.929912
v -11.710106 1.101831 1.182917
v -10.762637 1.820283 1.397992
v -10.762229 1.820593 -1.397992
v -11.710106 1.101831 -1.182917
v -7.265519 0.480053 1.830841
v -7.265519 1.736916 1.830841
v -7.265519 0.480053 0.882933
v -7.265519 1.736916 0.882933
v -6.782802 0.480053 1.830841
v -6.782802 1.736916 1.830841
v -6.782802 0.480053 0.882933
v -6.782802 1.736916 0.882933
v -7.318171 0.368994 0.799174
v -7.318171 0.368994 1.914599
v -7.318171 1.847975 1.914599
v -7.318171 1.847975 0.799174
v -7.157218 1.148269 -0.528937
v -6.513268 1.148269 -0.528937
v -7.157218 0.945854 -0.488674
v -6.513268 0.945854 -0.488674
v -7.157218 0.774255 -0.374015
v -6.513268 0.774255 -0.374015
v -7.157218 0.659595 -0.202415
v -6.513268 0.659595 -0.202415
v -7.157218 0.619332 0.000000
v -6.513268 0.619333 0.000000
v -7.157218 0.659595 0.202415
v -6.513268 0.659595 0.202415
v -7.157218 0.774255 0.374015
v -6.513268 0.774255 0.374015
v -7.157218 0.945854 0.488674
v -6.513268 0.945854 0.488674
v -7.157218 1.148269 0.528937
v -6.513268 1.148269 0.528937
v -7.157218 1.350685 0.488674
v -6.513268 1.350685 0.488674
v -7.157218 1.522284 0.374015
v -6.513268 1.522284 0.374015
v -7.157218 1.636943 0.202415
v -6.513268 1.636943 0.202415
v -7.157218 1.677206 0.000000
v -6.513268 1.677206 0.000000
v -7.157218 1.636943 -0.202415
v -6.513268 1.636943 -0.202415
v -7.157218 1.522284 -0.374015
v -6.513268 1.522284 -0.374015
v -7.157218 1.350685 -0.488674
v -6.513268 1.350685 -0.488674
v -6.408513 0.984753 -0.394765
v -6.408513 1.148269 -0.427290
v -6.408513 0.846130 -0.302140
v -6.408513 0.753505 -0.163517
v -6.408513 0.720979 0.000000
v -6.408513 0.753505 0.163517
v -6.408513 0.846130 0.302140
v -6.408513 0.984753 0.394765
v -6.408513 1.148269 0.427290
v -6.408513 1.311786 0.394765
v -6.408513 1.450409 0.302140
v -6.408513 1.543034 0.163517
v -6.408513 1.575560 0.000000
v -6.408513 1.543034 -0.163517
v -6.408513 1.450409 -0.302140
v -6.408513 1.311786 -0.394765
v -6.672978 1.035657 -0.271872
v -6.672978 1.148270 -0.294272
v -6.672978 0.940188 -0.208082
v -6.672978 0.876398 -0.112613
v -6.672978 0.853998 0.000000
v -6.672978 0.876398 0.112613
v -6.672978 0.940188 0.208082
v -6.672978 1.035657 0.271872
v -6.672978 1.148270 0.294272
v -6.672978 1.260882 0.271872
v -6.672978 1.356351 0.208082
v -6.672978 1.420141 0.112613
v -6.672978 1.442541 0.000000
v -6.672978 1.420141 -0.112613
v -6.672978 1.356351 -0.208082
v -6.672978 1.260882 -0.271872
v -7.301049 1.148269 -0.657120
v -7.301049 0.896801 -0.607099
v -7.301049 0.683616 -0.464654
v -7.301049 0.541170 -0.251469
v -7.301049 0.491150 0.000000
v -7.301049 0.541170 0.251469
v -7.301049 0.683616 0.464654
v -7.301049 0.896801 0.607099
v -7.301049 1.148269 0.657120
v -7.301049 1.399738 0.607099
v -7.301049 1.612923 0.464654
v -7.301049 1.755369 0.251469
v -7.301049 1.805389 0.000000
v -7.301049 1.755369 -0.251469
v -7.301049 1.612923 -0.464654
v -7.301049 1.399738 -0.607099
v -7.670176 0.116773 -3.219922
v -7.670176 2.116774 -3.219922
v -7.287493 0.116773 -3.143802
v -7.287493 2.116774 -3.143802
v -6.963069 0.116773 -2.927029
v -6.963069 2.116774 -2.927029
v -6.746296 0.116773 -2.602606
v -6.746296 2.116774 -2.602606
v -6.670176 0.116773 -2.219922
v -6.670176 2.116774 -2.219922
v -6.746296 0.116773 -1.837239
v -6.746296 2.116774 -1.837239
v -6.963069 0.116773 -1.512815
v -6.963069 2.116774 -1.512815
v -7.287493 0.116773 -1.296043
v -7.287493 2.116774 -1.296043
v -7.670176 0.116773 -1.219922
v -7.670176 2.116774 -1.219922
v -8.052859 0.116773 -1.296043
v -8.052859 2.116774 -1.296043
v -8.377283 0.116773 -1.512815
v -8.377283 2.116774 -1.512815
v -8.594055 0.116773 -1.837239
v -8.594055 2.116774 -1.837239
v -8.670176 0.116773 -2.219922
v -8.670176 2.116774 -2.219922
v -8.594055 0.116773 -2.602606
v -8.594055 2.116774 -2.602606
v -8.377283 0.116773 -2.927029
v -8.377283 2.116774 -2.927029
v -8.052859 0.116773 -3.143802
v -8.052859 2.116774 -3.143802
vn 0.0598 -0.9982 -0.0000
vn -0.6267 0.7058 0.3303
vn -0.6814 -0.1075 -0.7240
vn -0.6812 -0.1048 0.7246
vn 0.0339 -0.8835 0.4671
vn -0.5007 0.6984 -0.5114
vn -0.1291 -0.9197 0.3708
vn -0.3925 -0.0516 0.9183
vn -0.5940 -0.4119 -0.6910
vn -0.0127 -0.9248 0.3802
vn -0.6237 0.6991 -0.3496
vn -0.6017 0.2284 -0.7653
vn -0.0549 -0.8857 -0.4611
vn -0.6674 -0.0878 0.7395
vn -0.5915 0.6289 0.5046
vn -0.5007 0.6984 0.5114
vn -0.0236 -0.9997 -0.0000
vn 0.0325 -0.8836 -0.4671
vn 0.0448 -0.9990 -0.0000
vn -0.5965 0.8026 -0.0000
vn -0.6312 0.7757 -0.0000
vn -0.7434 0.5909 -0.3133
vn 0.0001 -0.9221 -0.3868
vn -0.9884 -0.1520 -0.0000
vn 0.2018 0.9794 -0.0002
vn 0.0057 -0.8171 -0.5764
vn -0.4362 0.8864 0.1548
vn 0.0083 -0.9237 0.3829
vn 0.0457 -0.9990 -0.0000
vn -0.1936 -0.8065 0.5586
vn 0.0303 -0.0618 0.9976
vn 0.2409 0.9705 -0.0002
vn 0.0433 -0.9330 -0.3572
vn -0.4979 0.7738 0.3916
vn -0.6042 0.7968 -0.0000
vn -0.9847 0.1740 -0.0001
vn 0.0982 0.9952 -0.0000
vn -0.4979 0.7738 -0.3916
vn 0.8466 -0.0000 -0.5322
vn -0.0000 -0.0000 -1.0000
vn 1.0000 -0.0000 -0.0000
vn -0.0000 -0.0000 1.0000
vn -0.0000 -1.0000 -0.0000
vn -0.0000 1.0000 -0.0000
vn -1.0000 -0.0000 -0.0000
vn 0.8466 -0.0000 0.5322
vn 0.9036 0.4284 -0.0000
vn 0.9036 -0.4284 -0.0000
vn -0.0000 -0.1951 -0.9808
vn -0.0000 -0.5556 -0.8315
vn -0.0000 -0.8315 -0.5556
vn -0.0000 -0.9808 -0.1951
vn -0.0000 -0.9808 0.1951
vn -0.0000 -0.8315 0.5556
vn -0.0000 -0.5556 0.8315
vn -0.0000 -0.1951 0.9808
vn -0.0000 0.1951 0.9808
vn -0.0000 0.5556 0.8315
vn -0.0000 0.8315 0.5556
vn -0.0000 0.9808 0.1951
vn -0.0000 0.9808 -0.1951
vn -0.0000 0.8315 -0.5556
vn 0.6894 0.7105 0.1413
vn -0.0000 0.5556 -0.8315
vn -0.0000 0.1951 -0.9808
vn 0.6581 -0.7385 0.1469
vn 0.4424 0.7457 0.4982
vn 0.6894 -0.7105 0.1413
vn 0.6894 0.4024 0.6023
vn 0.6894 0.4024 -0.6023
vn 0.6894 -0.6023 -0.4025
vn 0.6894 -0.1413 0.7105
vn 0.6894 -0.1413 -0.7105
vn 0.6894 0.7105 -0.1413
vn 0.6894 -0.6023 0.4025
vn 0.6894 0.6023 0.4024
vn 0.6894 0.1413 -0.7105
vn 0.6894 -0.7105 -0.1413
vn 0.6894 0.1413 0.7105
vn 0.6894 0.6023 -0.4024
vn 0.6894 -0.4024 -0.6023
vn 0.6894 -0.4024 0.6023
vn 0.4424 -0.7457 -0.4982
vn 0.4424 0.8796 0.1750
vn 0.4424 -0.8796 -0.1750
vn 0.4424 0.8796 -0.1750
vn 0.4424 -0.8796 0.1750
vn 0.4424 0.7457 -0.4982
vn 0.4424 -0.7457 0.4982
vn 0.4424 0.4982 -0.7457
vn 0.4424 -0.4982 0.7457
vn 0.4424 0.1750 -0.8796
vn 0.4424 0.1750 0.8796
vn 0.4424 -0.1750 0.8796
vn 0.4424 -0.1750 -0.8796
vn 0.4424 0.4982 0.7457
vn 0.4424 -0.4982 -0.7457
vn 0.6581 0.4183 0.6260
vn 0.6581 0.4183 -0.6260
vn 0.6581 -0.6260 -0.4183
vn 0.6581 -0.1469 0.7385
vn 0.6581 -0.1469 -0.7385
vn 0.6581 0.7385 -0.1469
vn 0.6581 -0.6260 0.4183
vn 0.6581 0.6260 0.4183
vn 0.6581 0.1469 -0.7385
vn 0.6581 -0.7385 -0.1469
vn 0.6581 0.1469 0.7385
vn 0.6581 0.6260 -0.4183
vn 0.6581 -0.4183 -0.6260
vn 0.6581 -0.4183 0.6260
vn 0.6581 0.7385 0.1469
vn 0.1951 -0.0000 -0.9808
vn 0.5556 -0.0000 -0.8315
vn 0.8315 -0.0000 -0.5556
vn 0.9808 -0.0000 -0.1951
vn 0.9808 -0.0000 0.1951
vn 0.8315 -0.0000 0.5556
vn 0.5556 -0.0000 0.8315
vn 0.1951 -0.0000 0.9808
vn 0.0597 -0.9982 -0.0000
vn -0.5969 0.7191 0.3557
vn -0.6155 0.2336 -0.7527
vn -0.6155 0.2336 0.7527
vn -0.0548 -0.8857 0.4611
vn -0.5982 -0.4026 0.6929
vn -0.3871 -0.0480 -0.9208
vn -0.0091 -0.9241 0.3821
vn -0.6340 0.6945 -0.3403
vn -0.6734 -0.0835 -0.7345
vn -0.1292 -0.9197 -0.3707
vn -0.5967 0.2265 0.7699
vn -0.7445 0.5904 0.3117
vn -0.5914 0.6289 -0.5046
vn -0.0126 -0.9248 -0.3802
vn 0.2024 0.9793 -0.0000
vn -0.0932 -0.8195 -0.5654
vn 1.0000 -0.0032 -0.0000
vn 0.9990 0.0403 0.0191
vn 0.9999 0.0122 -0.0003
vn 1.0000 0.0041 -0.0010
vn 0.0434 -0.9343 0.3540
vn 0.0077 -0.8099 0.5866
vn -0.0532 -0.1672 -0.9845
vn 0.0069 -0.9220 -0.3872
vn 0.6894 -0.6023 -0.4024
vn 0.6894 -0.6023 0.4024
vn 0.6894 0.6023 -0.4025
vt 0.250596 0.562183
vt 0.232941 0.684278
vt 0.232932 0.562183
vt 0.749423 0.684278
vt 0.766997 0.750000
vt 0.749421 0.750000
vt 0.625000 0.250000
vt 0.375000 0.309119
vt 0.375000 0.250000
vt 0.375000 0.940881
vt 0.625000 1.000000
vt 0.375000 1.000000
vt 0.125000 0.684278
vt 0.184119 0.684278
vt 0.184119 0.750000
vt 0.815881 0.562183
vt 0.815881 0.500000
vt 0.875000 0.562183
vt 0.232946 0.750000
vt 0.375000 0.874407
vt 0.625000 0.891997
vt 0.375000 0.892054
vt 0.375000 0.375708
vt 0.625000 0.357469
vt 0.625000 0.375708
vt 0.250594 0.684278
vt 0.749427 0.562183
vt 0.766968 0.500000
vt 0.766975 0.562183
vt 0.625000 0.309119
vt 0.375000 0.357469
vt 0.184119 0.500000
vt 0.184119 0.562183
vt 0.625000 0.940881
vt 0.815881 0.750000
vt 0.766990 0.684278
vt 0.815881 0.684278
vt 0.875000 0.750000
vt 0.125000 0.562183
vt 0.125000 0.500000
vt 0.875000 0.684278
vt 0.232928 0.500000
vt 0.250597 0.500000
vt 0.625000 0.065722
vt 0.375000 0.187817
vt 0.375000 0.065722
vt 0.749429 0.500000
vt 0.000000 0.000000
vt 0.250593 0.750000
vt 0.625000 0.874421
vt 0.375000 0.500000
vt 0.625000 0.500000
vt 0.375000 0.750000
vt 0.625000 0.750000
vt 0.125000 0.750000
vt 0.875000 0.500000
vt 0.625000 0.000000
vt 0.375000 0.000000
vt 1.000000 0.500000
vt 0.937500 1.000000
vt 0.937500 0.500000
vt 0.875000 1.000000
vt 0.812500 0.500000
vt 0.750000 1.000000
vt 0.750000 0.500000
vt 0.687500 0.500000
vt 0.562500 0.500000
vt 0.562500 1.000000
vt 0.500000 0.500000
vt 0.500000 1.000000
vt 0.437500 0.500000
vt 0.437500 1.000000
vt 0.312500 1.000000
vt 0.312500 0.500000
vt 0.250000 0.500000
vt 0.187500 1.000000
vt 0.187500 0.500000
vt 0.250000 1.000000
vt 0.062500 1.000000
vt 0.062500 0.500000
vt 0.000000 1.000000
vt 0.000000 0.500000
vt 0.812500 1.000000
vt 0.687500 1.000000
vt 0.125000 1.000000
vt 1.000000 1.000000
vt 0.080294 0.080294
vt 0.419706 0.080294
vt 0.419706 0.419706
vt 0.841844 0.028269
vt 0.528269 0.158156
vt 0.658156 0.471731
vt 0.625000 0.187817
vt 0.341844 0.471731
vt 0.250000 0.490000
vt 0.158156 0.471731
vt 0.080294 0.419706
vt 0.028269 0.341844
vt 0.010000 0.250000
vt 0.028269 0.158156
vt 0.158156 0.028269
vt 0.250000 0.010000
vt 0.341844 0.028269
vt 0.471731 0.158156
vt 0.490000 0.250000
vt 0.471731 0.341844
vt 0.750000 0.490000
vt 0.841844 0.471731
vt 0.919706 0.419706
vt 0.971731 0.341844
vt 0.990000 0.250000
vt 0.971731 0.158156
vt 0.919706 0.080294
vt 0.750000 0.010000
vt 0.658156 0.028269
vt 0.580294 0.080294
vt 0.510000 0.250000
vt 0.528269 0.341844
vt 0.580294 0.419706
s 0
f 27/1/1 23/2/1 30/3/1
f 24/4/2 19/5/2 18/6/2
f 3/7/3 4/8/3 2/9/3
f 6/10/4 1/11/4 10/12/4
f 10/13/5 7/14/5 6/15/5
f 29/16/6 8/17/6 3/18/6
f 6/15/7 23/2/7 12/19/7
f 13/20/8 19/21/8 12/22/8
f 14/23/9 17/24/9 16/25/9
f 22/26/10 12/19/10 23/2/10
f 31/27/11 20/28/11 28/29/11
f 8/30/12 11/31/12 4/8/12
f 4/32/13 30/3/13 26/33/13
f 9/34/14 12/22/14 19/21/14
f 9/35/15 25/36/15 5/37/15
f 9/35/16 5/37/16 1/38/16
f 2/39/17 7/14/17 10/13/17
f 2/40/18 4/32/18 26/33/18
f 7/14/19 30/3/19 23/2/19
f 24/4/20 28/29/20 25/36/20
f 29/16/21 1/41/21 5/37/21
f 8/17/22 28/29/22 20/28/22
f 27/1/23 15/42/23 14/43/23
f 1/44/24 2/45/24 10/46/24
f 21/47/25 24/4/25 18/6/25
f 16/48/26 37/48/26 14/48/26
f 38/48/27 35/47/27 36/49/27
f 22/26/28 36/49/28 13/49/28
f 22/26/29 32/1/29 33/26/29
f 18/50/30 36/20/30 34/50/30
f 16/48/31 35/48/31 38/48/31
f 21/47/32 34/6/32 35/47/32
f 27/1/33 37/43/33 32/1/33
f 29/16/34 41/29/34 28/29/34
f 40/36/35 42/16/35 39/37/35
f 25/36/36 41/29/36 40/36/36
f 5/37/37 42/16/37 29/16/37
f 5/37/38 40/36/38 39/37/38
f 45/9/39 54/7/39 46/7/39
f 46/7/40 49/51/40 45/9/40
f 50/52/41 47/53/41 49/51/41
f 48/54/42 43/12/42 47/53/42
f 49/51/43 43/55/43 45/40/43
f 46/56/44 48/54/44 50/52/44
f 53/57/45 51/9/45 52/58/45
f 43/12/46 53/11/46 52/12/46
f 46/56/47 53/38/47 44/38/47
f 43/55/48 51/40/48 45/40/48
f 55/59/49 58/60/49 57/61/49
f 58/60/50 59/56/50 57/61/50
f 60/62/51 61/63/51 59/56/51
f 61/63/52 64/64/52 63/65/52
f 64/64/53 65/66/53 63/65/53
f 65/66/54 68/11/54 67/52/54
f 68/11/55 69/67/55 67/52/55
f 70/68/56 71/69/56 69/67/56
f 72/70/57 73/71/57 71/69/57
f 74/72/58 75/51/58 73/71/58
f 75/51/59 78/73/59 77/74/59
f 78/73/60 79/75/60 77/74/60
f 79/75/61 82/76/61 81/77/61
f 82/76/62 83/40/62 81/77/62
f 80/78/63 98/73/63 99/78/63
f 83/40/64 86/79/64 85/80/64
f 85/80/65 56/81/65 55/82/65
f 63/65/66 124/66/66 123/65/66
f 89/62/67 106/83/67 90/83/67
f 64/64/68 92/84/68 66/84/68
f 76/12/69 96/72/69 97/12/69
f 84/85/70 102/79/70 86/79/70
f 60/62/71 90/83/71 62/83/71
f 70/68/72 95/70/72 72/70/72
f 58/60/73 88/86/73 87/60/73
f 80/78/74 100/76/74 82/76/74
f 66/84/75 93/11/75 68/11/75
f 76/12/76 98/73/76 78/73/76
f 56/81/77 102/79/77 88/81/77
f 62/83/78 91/64/78 64/64/78
f 72/70/79 96/72/79 74/72/79
f 82/76/80 101/85/80 84/85/80
f 60/62/81 87/60/81 89/62/81
f 68/11/82 94/68/82 70/68/82
f 113/87/41 109/88/41 105/89/41
f 98/73/83 113/12/83 114/73/83
f 91/64/84 106/83/84 107/64/84
f 98/73/85 115/78/85 99/78/85
f 91/64/86 108/84/86 92/84/86
f 100/76/87 115/78/87 116/76/87
f 92/84/88 109/11/88 93/11/88
f 100/76/89 117/85/89 101/85/89
f 94/68/90 109/11/90 110/68/90
f 102/79/91 117/85/91 118/79/91
f 95/70/92 110/68/92 111/70/92
f 88/86/93 103/60/93 87/60/93
f 88/81/94 118/79/94 104/81/94
f 95/70/95 112/72/95 96/72/95
f 87/60/96 105/62/96 89/62/96
f 96/72/97 113/12/97 97/12/97
f 126/90/45 130/91/45 134/92/45
f 73/71/98 129/51/98 128/71/98
f 85/80/99 133/40/99 83/40/99
f 59/56/100 122/63/100 121/56/100
f 71/69/101 126/67/101 69/67/101
f 57/61/102 119/59/102 55/59/102
f 79/75/103 132/77/103 131/75/103
f 65/66/104 125/52/104 124/66/104
f 77/74/105 129/51/105 75/51/105
f 55/82/106 134/80/106 85/80/106
f 61/63/107 123/65/107 122/63/107
f 71/69/108 128/71/108 127/69/108
f 83/40/109 132/77/109 81/77/109
f 59/56/110 120/61/110 57/61/110
f 69/67/111 125/52/111 67/52/111
f 77/74/112 131/75/112 130/74/112
f 136/86/113 137/61/113 135/59/113
f 138/60/114 139/56/114 137/61/114
f 140/62/115 141/63/115 139/56/115
f 142/83/116 143/65/116 141/63/116
f 144/64/117 145/66/117 143/65/117
f 146/84/118 147/52/118 145/66/118
f 148/11/119 149/67/119 147/52/119
f 150/68/120 151/69/120 149/67/120
f 156/87/44 148/88/44 140/89/44
f 149/90/43 157/91/43 165/92/43
f 27/1/121 22/26/121 23/2/121
f 24/4/122 25/36/122 19/5/122
f 3/7/123 8/30/123 4/8/123
f 6/10/124 9/34/124 1/11/124
f 6/15/125 7/14/125 23/2/125
f 13/20/126 18/50/126 19/21/126
f 14/23/127 11/31/127 17/24/127
f 22/26/128 13/49/128 12/19/128
f 31/27/129 21/47/129 20/28/129
f 8/30/130 17/24/130 11/31/130
f 4/32/131 15/42/131 30/3/131
f 9/34/132 6/10/132 12/22/132
f 9/35/133 19/5/133 25/36/133
f 2/39/17 26/33/17 7/14/17
f 7/14/19 26/33/19 30/3/19
f 24/4/20 31/27/20 28/29/20
f 29/16/21 3/18/21 1/41/21
f 8/17/134 29/16/134 28/29/134
f 27/1/135 30/3/135 15/42/135
f 1/44/24 3/93/24 2/45/24
f 21/47/136 31/27/136 24/4/136
f 16/48/137 38/48/137 37/48/137
f 36/49/138 33/26/138 32/1/138
f 32/1/139 37/43/139 38/48/139
f 35/47/140 34/50/140 36/49/140
f 36/49/141 32/1/141 38/48/141
f 22/26/142 33/26/142 36/49/142
f 22/26/29 27/1/29 32/1/29
f 18/50/143 13/20/143 36/20/143
f 16/48/144 21/48/144 35/48/144
f 21/47/32 18/6/32 34/6/32
f 27/1/145 14/43/145 37/43/145
f 29/16/34 42/16/34 41/29/34
f 40/36/35 41/29/35 42/16/35
f 25/36/36 28/29/36 41/29/36
f 5/37/37 39/37/37 42/16/37
f 5/37/38 25/36/38 40/36/38
f 45/9/39 51/9/39 54/7/39
f 46/7/40 50/52/40 49/51/40
f 50/52/41 48/54/41 47/53/41
f 48/54/42 44/11/42 43/12/42
f 49/51/43 47/53/43 43/55/43
f 46/56/44 44/38/44 48/54/44
f 53/57/45 54/7/45 51/9/45
f 43/12/46 44/11/46 53/11/46
f 46/56/47 54/56/47 53/38/47
f 43/55/48 52/55/48 51/40/48
f 55/59/49 56/86/49 58/60/49
f 58/60/50 60/62/50 59/56/50
f 60/62/51 62/83/51 61/63/51
f 61/63/52 62/83/52 64/64/52
f 64/64/53 66/84/53 65/66/53
f 65/66/54 66/84/54 68/11/54
f 68/11/55 70/68/55 69/67/55
f 70/68/56 72/70/56 71/69/56
f 72/70/57 74/72/57 73/71/57
f 74/72/58 76/12/58 75/51/58
f 75/51/59 76/12/59 78/73/59
f 78/73/60 80/78/60 79/75/60
f 79/75/61 80/78/61 82/76/61
f 82/76/62 84/85/62 83/40/62
f 80/78/63 78/73/63 98/73/63
f 83/40/64 84/85/64 86/79/64
f 85/80/65 86/79/65 56/81/65
f 63/65/66 65/66/66 124/66/66
f 89/62/67 105/62/67 106/83/67
f 64/64/68 91/64/68 92/84/68
f 76/12/69 74/72/69 96/72/69
f 84/85/70 101/85/70 102/79/70
f 60/62/146 89/62/146 90/83/146
f 70/68/72 94/68/72 95/70/72
f 58/60/73 56/86/73 88/86/73
f 80/78/74 99/78/74 100/76/74
f 66/84/147 92/84/147 93/11/147
f 76/12/76 97/12/76 98/73/76
f 56/81/77 86/79/77 102/79/77
f 62/83/78 90/83/78 91/64/78
f 72/70/79 95/70/79 96/72/79
f 82/76/148 100/76/148 101/85/148
f 60/62/81 58/60/81 87/60/81
f 68/11/82 93/11/82 94/68/82
f 105/89/41 103/94/41 104/95/41
f 104/95/41 118/96/41 117/97/41
f 117/97/41 116/98/41 115/99/41
f 115/99/41 114/100/41 113/87/41
f 113/87/41 112/101/41 111/102/41
f 111/102/41 110/103/41 109/88/41
f 109/88/41 108/104/41 107/105/41
f 107/105/41 106/106/41 105/89/41
f 105/89/41 104/95/41 117/97/41
f 117/97/41 115/99/41 113/87/41
f 113/87/41 111/102/41 109/88/41
f 109/88/41 107/105/41 105/89/41
f 105/89/41 117/97/41 113/87/41
f 98/73/83 97/12/83 113/12/83
f 91/64/84 90/83/84 106/83/84
f 98/73/85 114/73/85 115/78/85
f 91/64/86 107/64/86 108/84/86
f 100/76/87 99/78/87 115/78/87
f 92/84/88 108/84/88 109/11/88
f 100/76/89 116/76/89 117/85/89
f 94/68/90 93/11/90 109/11/90
f 102/79/91 101/85/91 117/85/91
f 95/70/92 94/68/92 110/68/92
f 88/86/93 104/86/93 103/60/93
f 88/81/94 102/79/94 118/79/94
f 95/70/95 111/70/95 112/72/95
f 87/60/96 103/60/96 105/62/96
f 96/72/97 112/72/97 113/12/97
f 134/92/45 119/107/45 120/108/45
f 120/108/45 121/109/45 122/110/45
f 122/110/45 123/111/45 124/112/45
f 124/112/45 125/113/45 126/90/45
f 126/90/45 127/114/45 128/115/45
f 128/115/45 129/116/45 130/91/45
f 130/91/45 131/117/45 132/118/45
f 132/118/45 133/119/45 134/92/45
f 134/92/45 120/108/45 122/110/45
f 122/110/45 124/112/45 126/90/45
f 126/90/45 128/115/45 130/91/45
f 130/91/45 132/118/45 134/92/45
f 134/92/45 122/110/45 126/90/45
f 73/71/98 75/51/98 129/51/98
f 85/80/99 134/80/99 133/40/99
f 59/56/100 61/63/100 122/63/100
f 71/69/101 127/69/101 126/67/101
f 57/61/102 120/61/102 119/59/102
f 79/75/103 81/77/103 132/77/103
f 65/66/104 67/52/104 125/52/104
f 77/74/105 130/74/105 129/51/105
f 55/82/106 119/82/106 134/80/106
f 61/63/107 63/65/107 123/65/107
f 71/69/108 73/71/108 128/71/108
f 83/40/109 133/40/109 132/77/109
f 59/56/110 121/56/110 120/61/110
f 69/67/111 126/67/111 125/52/111
f 77/74/112 79/75/112 131/75/112
f 136/86/113 138/60/113 137/61/113
f 138/60/114 140/62/114 139/56/114
f 140/62/115 142/83/115 141/63/115
f 142/83/116 144/64/116 143/65/116
f 144/64/117 146/84/117 145/66/117
f 146/84/118 148/11/118 147/52/118
f 148/11/119 150/68/119 149/67/119
f 150/68/120 152/70/120 151/69/120
f 140/89/44 138/94/44 136/95/44
f 136/95/44 166/96/44 164/97/44
f 164/97/44 162/98/44 160/99/44
f 160/99/44 158/100/44 156/87/44
f 156/87/44 154/101/44 152/102/44
f 152/102/44 150/103/44 148/88/44
f 148/88/44 146/104/44 144/105/44
f 144/105/44 142/106/44 140/89/44
f 140/89/44 136/95/44 164/97/44
f 164/97/44 160/99/44 156/87/44
f 156/87/44 152/102/44 148/88/44
f 148/88/44 144/105/44 140/89/44
f 140/89/44 164/97/44 156/87/44
f 165/92/43 135/107/43 137/108/43
f 137/108/43 139/109/43 141/110/43
f 141/110/43 143/111/43 145/112/43
f 145/112/43 147/113/43 149/90/43
f 149/90/43 151/114/43 153/115/43
f 153/115/43 155/116/43 157/91/43
f 157/91/43 159/117/43 161/118/43
f 161/118/43 163/119/43 165/92/43
f 165/92/43 137/108/43 141/110/43
f 141/110/43 145/112/43 149/90/43
f 149/90/43 153/115/43 157/91/43
f 157/91/43 161/118/43 165/92/43
f 165/92/43 141/110/43 149/90/43
