# Blender 5.0.1
# www.blender.org
mtllib ship_panel_bottom_LF.mtl
o ship_panel_bottom_LF
v -0.469344 -0.497712 2.849487
v -7.285008 -0.526094 1.968524
v -9.358695 -0.620929 1.972444
v -3.323734 -0.042764 10.086724
v 1.012575 0.557499 12.985979
v 0.960070 0.272336 12.735189
v -0.469823 -0.447840 2.845936
v -7.285486 -0.476223 1.964973
v -9.359174 -0.571057 1.968893
v -3.302616 -0.010486 10.075130
v 0.989061 0.582758 13.022161
v 0.953666 0.265474 12.763142
vn 0.4053 0.5605 -0.7222
vn 0.0525 -0.9980 0.0338
vn -0.4224 -0.5445 0.7247
vn -0.0413 0.9985 -0.0370
vn 0.1282 -0.0692 -0.9893
vn 0.0014 -0.0710 -0.9975
vn -0.8031 0.0346 0.5948
vn -0.4699 0.5542 0.6871
vn -0.6480 0.7607 0.0383
vn 0.0457 -0.9983 0.0371
vn -0.0060 -0.9969 0.0785
vn -0.0457 0.9983 -0.0349
vn 0.0052 0.9974 -0.0725
vn -0.6623 0.5963 0.4536
vn 0.1900 -0.9627 -0.1928
vn 0.9897 -0.0007 -0.1431
vt 0.000000 0.000000
s 0
f 5/1/1 6/1/1 4/1/1
f 2/1/2 6/1/2 4/1/2
f 11/1/3 10/1/3 12/1/3
f 10/1/4 12/1/4 8/1/4
f 2/1/5 7/1/5 1/1/5
f 2/1/6 9/1/6 8/1/6
f 4/1/7 9/1/7 3/1/7
f 4/1/8 12/1/8 10/1/8
f 6/1/9 7/1/9 12/1/9
f 4/1/10 3/1/10 2/1/10
f 2/1/11 1/1/11 6/1/11
f 8/1/12 9/1/12 10/1/12
f 12/1/13 7/1/13 8/1/13
f 2/1/5 8/1/5 7/1/5
f 2/1/6 3/1/6 9/1/6
f 4/1/14 10/1/14 9/1/14
f 4/1/15 6/1/15 12/1/15
f 6/1/16 1/1/16 7/1/16
