# Blender 5.0.1
# www.blender.org
mtllib ship_panel_back.mtl
o ship_panel_back
v 8.398134 1.035219 2.250000
v 8.398134 1.235219 2.250000
v 8.398134 1.035219 -2.250000
v 8.398134 1.235219 -2.250000
v 8.598135 1.035219 2.250000
v 8.598135 1.235219 2.250000
v 8.598135 1.035219 -2.250000
v 8.598135 1.235219 -2.250000
v 8.726803 2.591753 3.995089
v 8.726806 2.591753 -3.995089
v 8.712797 -0.378585 -4.000000
v 8.683888 -0.366565 4.004807
v 8.423536 2.537498 3.846965
v 8.423539 2.537498 -3.846965
v 8.423536 -0.288563 -3.846965
v 8.423536 -0.288563 3.846965
v 8.683937 2.615543 4.004911
v 8.683940 2.615543 -4.004911
v 8.683888 -0.366565 -4.004807
v 8.683888 -0.366565 4.004807
v 8.387243 2.564495 3.868273
v 8.387246 2.564495 -3.868273
v 8.387243 -0.315560 -3.868273
v 8.387243 -0.315560 3.868273
vn -1.0000 -0.0000 -0.0000
vn -0.0000 -0.0000 -1.0000
vn 1.0000 -0.0000 -0.0000
vn -0.0000 -0.0000 1.0000
vn -0.0000 -1.0000 -0.0000
vn -0.0000 1.0000 -0.0000
vn 0.2872 0.9579 -0.0004
vn 0.1761 -0.9844 -0.0000
vn 0.4389 -0.0000 -0.8985
vn 0.4667 -0.0037 0.8844
vn -0.1695 -0.9855 -0.0000
vn -0.1696 0.9855 -0.0000
vn -0.4183 -0.0000 0.9083
vn -0.4183 -0.0000 -0.9083
vn 0.4853 0.8744 -0.0000
vn -0.3839 -0.9234 -0.0000
vn 0.2972 0.9548 -0.0000
vn 0.5161 -0.0103 -0.8564
vn 0.4389 -0.0000 0.8985
vn -0.4181 -0.0000 0.9084
vn -0.4181 -0.0000 -0.9084
vt 0.625000 0.000000
vt 0.375000 0.250000
vt 0.375000 0.000000
vt 0.625000 0.250000
vt 0.375000 0.500000
vt 0.625000 0.500000
vt 0.375000 0.750000
vt 0.625000 0.750000
vt 0.375000 1.000000
vt 0.125000 0.750000
vt 0.125000 0.500000
vt 0.875000 0.500000
vt 0.000000 0.000000
vt 0.625000 1.000000
vt 0.875000 0.750000
s 0
f 2/1/1 3/2/1 1/3/1
f 4/4/2 7/5/2 3/2/2
f 8/6/3 5/7/3 7/5/3
f 6/8/4 1/9/4 5/7/4
f 7/5/5 1/10/5 3/11/5
f 4/12/6 6/8/6 8/6/6
f 11/13/7 16/13/7 12/13/7
f 16/13/3 14/13/3 13/13/3
f 9/13/8 14/13/8 10/13/8
f 9/13/9 16/13/9 13/13/9
f 10/13/10 15/13/10 11/13/10
f 24/13/11 19/13/11 20/13/11
f 22/13/1 24/13/1 21/13/1
f 22/13/12 17/13/12 18/13/12
f 21/13/13 20/13/13 17/13/13
f 19/13/14 22/13/14 18/13/14
f 10/13/15 17/13/15 9/13/15
f 11/13/16 20/13/16 19/13/16
f 2/1/1 4/4/1 3/2/1
f 4/4/2 8/6/2 7/5/2
f 8/6/3 6/8/3 5/7/3
f 6/8/4 2/14/4 1/9/4
f 7/5/5 5/7/5 1/10/5
f 4/12/6 2/15/6 6/8/6
f 11/13/17 15/13/17 16/13/17
f 16/13/3 15/13/3 14/13/3
f 9/13/8 13/13/8 14/13/8
f 9/13/18 12/13/18 16/13/18
f 10/13/19 14/13/19 15/13/19
f 24/13/11 23/13/11 19/13/11
f 22/13/1 23/13/1 24/13/1
f 22/13/12 21/13/12 17/13/12
f 21/13/20 24/13/20 20/13/20
f 19/13/21 23/13/21 22/13/21
f 10/13/15 18/13/15 17/13/15
f 11/13/6 12/13/6 20/13/6
