# Blender 5.0.1
# www.blender.org
mtllib ship_tank_R.mtl
o ship_tank_R
v 4.779184 0.951657 -0.410029
v 4.779184 0.670276 -0.465999
v 7.538454 0.951657 -0.410029
v 4.779184 1.233038 -0.465999
v 4.614977 0.951657 -0.587752
v 4.614977 0.738288 -0.630193
v 4.614977 1.165026 -0.630193
v 4.543224 0.951657 -0.846701
v 4.543224 0.837383 -0.869431
v 4.543224 1.065931 -0.869431
v 4.543224 1.162807 -0.934162
v 4.543224 1.227538 -1.031039
v 4.614977 1.345912 -0.751057
v 4.614977 1.466776 -0.931943
v 4.779184 1.471581 -0.625389
v 4.779184 1.630970 -0.863932
v 7.538454 1.471581 -0.625389
v 7.538454 1.630970 -0.863932
v 7.538454 1.233038 -0.465999
v 7.657692 1.365906 -0.731064
v 7.657692 1.492899 -0.921123
v 7.657692 1.175847 -0.604070
v 7.724998 1.250630 -0.846339
v 7.724998 1.342285 -0.983509
v 7.724998 1.113460 -0.754685
v 7.724998 0.951657 -0.722500
v 7.724998 0.789854 -0.754685
v 7.657692 0.951657 -0.559476
v 7.657692 0.727467 -0.604070
v 7.657692 0.537408 -0.731064
v 7.538454 0.670276 -0.465999
v 7.538454 0.431733 -0.625389
v 4.779184 0.431733 -0.625389
v 7.538454 0.272344 -0.863932
v 4.779184 0.272344 -0.863932
v 7.538454 0.216374 -1.145312
v 7.657692 0.410415 -0.921123
v 7.657692 0.365821 -1.145312
v 7.724998 0.561029 -0.983509
v 7.724998 0.652684 -0.846339
v 7.724998 0.528845 -1.145312
v 7.724998 0.561029 -1.307116
v 7.724998 0.652684 -1.444286
v 7.657692 0.410415 -1.369502
v 7.657692 0.537408 -1.559561
v 7.538454 0.272344 -1.426693
v 4.779184 0.272344 -1.426693
v 7.538454 0.431733 -1.665236
v 4.779184 0.431733 -1.665236
v 7.538454 0.670276 -1.824626
v 4.779184 0.670276 -1.824626
v 7.538454 0.951657 -1.880596
v 7.657692 0.727467 -1.686555
v 7.657692 0.951657 -1.731149
v 7.724998 0.789854 -1.535940
v 7.724998 0.951657 -1.568125
v 7.724998 1.113460 -1.535940
v 7.724998 1.250630 -1.444286
v 7.657692 1.175847 -1.686555
v 7.657692 1.365906 -1.559561
v 7.538454 1.233038 -1.824626
v 4.779184 1.233038 -1.824626
v 7.538454 1.471581 -1.665236
v 4.779184 1.471581 -1.665236
v 7.538454 1.630970 -1.426693
v 4.779184 1.630970 -1.426693
v 7.538454 1.686940 -1.145312
v 7.657692 1.492899 -1.369502
v 7.657692 1.537493 -1.145312
v 7.724998 1.342285 -1.307116
v 7.724998 1.374469 -1.145312
v 4.779184 1.686940 -1.145312
v 4.614977 1.509218 -1.145312
v 4.614977 1.466776 -1.358682
v 4.543224 1.250268 -1.145312
v 4.543224 1.227538 -1.259586
v 4.543224 1.162807 -1.356463
v 4.543224 1.065931 -1.421194
v 4.614977 1.345912 -1.539568
v 4.614977 1.165026 -1.660432
v 4.614977 0.951657 -1.702873
v 4.614977 0.738288 -1.660432
v 4.779184 0.951657 -1.880596
v 4.543224 0.951657 -1.443924
v 4.543224 0.837383 -1.421194
v 4.543224 0.740507 -1.356463
v 4.543224 0.675776 -1.259586
v 4.614977 0.557402 -1.539568
v 4.614977 0.436538 -1.358682
v 4.614977 0.394096 -1.145312
v 4.614977 0.436538 -0.931943
v 4.779184 0.216374 -1.145312
v 4.543224 0.653045 -1.145312
v 4.543224 0.675776 -1.031039
v 4.543224 0.740507 -0.934162
v 4.614977 0.557402 -0.751057
vn -0.7279 -0.1338 0.6725
vn -0.0000 -0.1951 0.9808
vn -0.0000 0.1951 0.9808
vn -0.7279 0.1338 0.6725
vn -0.9623 -0.0530 0.2667
vn -0.9623 0.0530 0.2667
vn -1.0000 -0.0000 -0.0000
vn -0.9623 0.1510 0.2261
vn -0.9623 0.2261 0.1510
vn -0.7279 0.5701 0.3810
vn -0.7279 0.3810 0.5701
vn -0.0000 0.8315 0.5556
vn -0.0000 0.5556 0.8315
vn 0.7757 0.5247 0.3506
vn 0.7757 0.3506 0.5247
vn 0.9217 0.3226 0.2155
vn 0.9217 0.2155 0.3226
vn 1.0000 -0.0000 -0.0000
vn 0.9217 0.0757 0.3805
vn 0.9217 -0.0757 0.3805
vn 0.7757 -0.1231 0.6189
vn 0.7757 0.1231 0.6189
vn 0.9217 -0.2155 0.3226
vn 0.7757 -0.3506 0.5247
vn -0.0000 -0.5556 0.8315
vn -0.0000 -0.8315 0.5556
vn 0.7757 -0.5247 0.3506
vn -0.0000 -0.9808 0.1951
vn 0.7757 -0.6189 0.1231
vn 0.9217 -0.3226 0.2155
vn 0.9217 -0.3805 0.0757
vn 0.9217 -0.3805 -0.0757
vn 0.9217 -0.3226 -0.2155
vn 0.7757 -0.6189 -0.1231
vn 0.7757 -0.5247 -0.3506
vn -0.0000 -0.9808 -0.1951
vn -0.0000 -0.8315 -0.5556
vn -0.0000 -0.5556 -0.8315
vn 0.7757 -0.3506 -0.5247
vn -0.0000 -0.1951 -0.9808
vn 0.7757 -0.1231 -0.6189
vn 0.9217 -0.2155 -0.3226
vn 0.9217 -0.0757 -0.3805
vn 0.9217 0.0757 -0.3805
vn 0.9217 0.2155 -0.3226
vn 0.7757 0.1231 -0.6189
vn 0.7757 0.3506 -0.5247
vn -0.0000 0.1951 -0.9808
vn -0.0000 0.5556 -0.8315
vn -0.0000 0.8315 -0.5556
vn 0.7757 0.5247 -0.3506
vn -0.0000 0.9808 -0.1951
vn 0.7757 0.6189 -0.1231
vn 0.9217 0.3226 -0.2155
vn 0.9217 0.3805 -0.0757
vn 0.9217 0.3805 0.0757
vn 0.7757 0.6189 0.1231
vn -0.0000 0.9808 0.1951
vn -0.7279 0.6725 -0.1338
vn -0.7279 0.6725 0.1338
vn -0.9623 0.2667 -0.0530
vn -0.9623 0.2667 0.0530
vn -0.9623 0.2261 -0.1510
vn -0.9623 0.1510 -0.2261
vn -0.7279 0.3810 -0.5701
vn -0.7279 0.5701 -0.3810
vn -0.7279 0.1338 -0.6725
vn -0.9623 0.0530 -0.2667
vn -0.9623 -0.0530 -0.2667
vn -0.7279 -0.1338 -0.6725
vn -0.9623 -0.1510 -0.2261
vn -0.9623 -0.2261 -0.1510
vn -0.7279 -0.5701 -0.3810
vn -0.7279 -0.3810 -0.5701
vn -0.9623 -0.2667 -0.0530
vn -0.7279 -0.6725 -0.1338
vn -0.9623 -0.2667 0.0530
vn -0.7279 -0.6725 0.1338
vn -0.9623 -0.2261 0.1510
vn -0.9623 -0.1510 0.2261
vn -0.7279 -0.3810 0.5701
vn -0.7279 -0.5701 0.3810
vn 0.9217 0.3226 0.2156
vn 0.9217 0.3226 -0.2156
vt 1.000000 0.500000
vt 0.937500 0.500000
vt 1.000000 1.000000
vt 0.000000 0.500000
vt 0.062500 1.000000
vt 0.062500 0.500000
vt 0.658156 0.028269
vt 0.971731 0.158156
vt 0.841844 0.471731
vt 0.125000 0.500000
vt 0.187500 0.500000
vt 0.187500 1.000000
vt 0.125000 1.000000
vt 0.250000 0.010000
vt 0.010000 0.250000
vt 0.250000 0.490000
vt 0.000000 1.000000
vt 0.937500 1.000000
vt 0.875000 1.000000
vt 0.875000 0.500000
vt 0.812500 0.500000
vt 0.812500 1.000000
vt 0.750000 0.500000
vt 0.750000 1.000000
vt 0.687500 1.000000
vt 0.625000 1.000000
vt 0.687500 0.500000
vt 0.625000 0.500000
vt 0.562500 0.500000
vt 0.562500 1.000000
vt 0.500000 0.500000
vt 0.500000 1.000000
vt 0.437500 1.000000
vt 0.375000 1.000000
vt 0.437500 0.500000
vt 0.375000 0.500000
vt 0.312500 0.500000
vt 0.312500 1.000000
vt 0.250000 1.000000
vt 0.250000 0.500000
vt 0.750000 0.490000
vt 0.658156 0.471731
vt 0.580294 0.419706
vt 0.528269 0.341844
vt 0.510000 0.250000
vt 0.528269 0.158156
vt 0.580294 0.080294
vt 0.750000 0.010000
vt 0.841844 0.028269
vt 0.919706 0.080294
vt 0.990000 0.250000
vt 0.971731 0.341844
vt 0.919706 0.419706
vt 0.341844 0.471731
vt 0.419706 0.419706
vt 0.471731 0.341844
vt 0.490000 0.250000
vt 0.471731 0.158156
vt 0.419706 0.080294
vt 0.341844 0.028269
vt 0.158156 0.028269
vt 0.080294 0.080294
vt 0.028269 0.158156
vt 0.028269 0.341844
vt 0.080294 0.419706
vt 0.158156 0.471731
s 0
f 5/1/1 2/2/1 1/1/1
f 2/2/2 3/3/2 1/1/2
f 1/4/3 19/5/3 4/6/3
f 7/6/4 1/4/4 4/6/4
f 8/1/5 6/2/5 5/1/5
f 7/6/6 8/4/6 5/4/6
f 78/7/7 87/8/7 9/9/7
f 13/10/8 10/6/8 7/6/8
f 14/11/9 11/10/9 13/10/9
f 14/11/10 15/10/10 16/11/10
f 13/10/11 4/6/11 15/10/11
f 15/10/12 18/12/12 16/11/12
f 4/6/13 17/13/13 15/10/13
f 17/13/14 21/12/14 18/12/14
f 19/5/15 20/13/15 17/13/15
f 20/13/16 24/12/16 21/12/16
f 25/5/17 20/13/17 22/5/17
f 56/14/18 71/15/18 26/16/18
f 26/17/19 22/5/19 28/17/19
f 27/18/20 28/3/20 29/18/20
f 29/18/21 3/3/21 31/18/21
f 3/17/22 22/5/22 19/5/22
f 30/19/23 27/18/23 29/18/23
f 30/19/24 31/18/24 32/19/24
f 33/20/25 31/18/25 2/2/25
f 35/21/26 32/19/26 33/20/26
f 37/22/27 32/19/27 34/22/27
f 92/23/28 34/22/28 35/21/28
f 38/24/29 34/22/29 36/24/29
f 39/22/30 30/19/30 37/22/30
f 38/24/31 39/22/31 37/22/31
f 42/25/32 38/24/32 44/25/32
f 43/26/33 44/25/33 45/26/33
f 44/25/34 36/24/34 46/25/34
f 45/26/35 46/25/35 48/26/35
f 47/27/36 36/24/36 92/23/36
f 49/28/37 46/25/37 47/27/37
f 51/29/38 48/26/38 49/28/38
f 53/30/39 48/26/39 50/30/39
f 83/31/40 50/30/40 51/29/40
f 54/32/41 50/30/41 52/32/41
f 55/30/42 45/26/42 53/30/42
f 56/32/43 53/30/43 54/32/43
f 59/33/44 56/32/44 54/32/44
f 60/34/45 57/33/45 59/33/45
f 59/33/46 52/32/46 61/33/46
f 60/34/47 61/33/47 63/34/47
f 62/35/48 52/32/48 83/31/48
f 64/36/49 61/33/49 62/35/49
f 66/37/50 63/34/50 64/36/50
f 68/38/51 63/34/51 65/38/51
f 66/37/52 67/39/52 65/38/52
f 69/39/53 65/38/53 67/39/53
f 68/38/54 58/34/54 60/34/54
f 69/39/55 70/38/55 68/38/55
f 24/12/56 69/39/56 21/12/56
f 21/12/57 67/39/57 18/12/57
f 72/40/58 18/12/58 67/39/58
f 74/37/59 72/40/59 66/37/59
f 73/40/60 16/11/60 72/40/60
f 74/37/61 75/40/61 73/40/61
f 75/40/62 14/11/62 73/40/62
f 77/36/63 74/37/63 79/36/63
f 78/35/64 79/36/64 80/35/64
f 62/35/65 79/36/65 64/36/65
f 79/36/66 66/37/66 64/36/66
f 83/31/67 80/35/67 62/35/67
f 84/31/68 80/35/68 81/31/68
f 82/29/69 84/31/69 81/31/69
f 82/29/70 83/31/70 51/29/70
f 86/28/71 82/29/71 88/28/71
f 89/27/72 86/28/72 88/28/72
f 89/27/73 49/28/73 47/27/73
f 88/28/74 51/29/74 49/28/74
f 93/23/75 89/27/75 90/23/75
f 90/23/76 47/27/76 92/23/76
f 94/21/77 90/23/77 91/21/77
f 35/21/78 90/23/78 92/23/78
f 95/20/79 91/21/79 96/20/79
f 6/2/80 95/20/80 96/20/80
f 6/2/81 33/20/81 2/2/81
f 33/20/82 91/21/82 35/21/82
f 5/1/1 6/2/1 2/2/1
f 2/2/2 31/18/2 3/3/2
f 1/4/3 3/17/3 19/5/3
f 7/6/4 5/4/4 1/4/4
f 8/1/5 9/2/5 6/2/5
f 7/6/6 10/6/6 8/4/6
f 9/9/7 8/41/7 10/42/7
f 10/42/7 11/43/7 12/44/7
f 12/44/7 75/45/7 76/46/7
f 76/46/7 77/47/7 78/7/7
f 78/7/7 84/48/7 85/49/7
f 85/49/7 86/50/7 87/8/7
f 87/8/7 93/51/7 94/52/7
f 94/52/7 95/53/7 9/9/7
f 9/9/7 10/42/7 12/44/7
f 12/44/7 76/46/7 78/7/7
f 78/7/7 85/49/7 87/8/7
f 87/8/7 94/52/7 9/9/7
f 9/9/7 12/44/7 78/7/7
f 13/10/8 11/10/8 10/6/8
f 14/11/9 12/11/9 11/10/9
f 14/11/10 13/10/10 15/10/10
f 13/10/11 7/6/11 4/6/11
f 15/10/12 17/13/12 18/12/12
f 4/6/13 19/5/13 17/13/13
f 17/13/14 20/13/14 21/12/14
f 19/5/15 22/5/15 20/13/15
f 20/13/83 23/13/83 24/12/83
f 25/5/17 23/13/17 20/13/17
f 26/16/18 27/54/18 40/55/18
f 40/55/18 39/56/18 41/57/18
f 41/57/18 42/58/18 43/59/18
f 43/59/18 55/60/18 56/14/18
f 56/14/18 57/61/18 58/62/18
f 58/62/18 70/63/18 71/15/18
f 71/15/18 24/64/18 23/65/18
f 23/65/18 25/66/18 26/16/18
f 26/16/18 40/55/18 41/57/18
f 41/57/18 43/59/18 56/14/18
f 56/14/18 58/62/18 71/15/18
f 71/15/18 23/65/18 26/16/18
f 26/16/18 41/57/18 56/14/18
f 26/17/19 25/5/19 22/5/19
f 27/18/20 26/3/20 28/3/20
f 29/18/21 28/3/21 3/3/21
f 3/17/22 28/17/22 22/5/22
f 30/19/23 40/19/23 27/18/23
f 30/19/24 29/18/24 31/18/24
f 33/20/25 32/19/25 31/18/25
f 35/21/26 34/22/26 32/19/26
f 37/22/27 30/19/27 32/19/27
f 92/23/28 36/24/28 34/22/28
f 38/24/29 37/22/29 34/22/29
f 39/22/30 40/19/30 30/19/30
f 38/24/31 41/24/31 39/22/31
f 42/25/32 41/24/32 38/24/32
f 43/26/33 42/25/33 44/25/33
f 44/25/34 38/24/34 36/24/34
f 45/26/35 44/25/35 46/25/35
f 47/27/36 46/25/36 36/24/36
f 49/28/37 48/26/37 46/25/37
f 51/29/38 50/30/38 48/26/38
f 53/30/39 45/26/39 48/26/39
f 83/31/40 52/32/40 50/30/40
f 54/32/41 53/30/41 50/30/41
f 55/30/42 43/26/42 45/26/42
f 56/32/43 55/30/43 53/30/43
f 59/33/44 57/33/44 56/32/44
f 60/34/45 58/34/45 57/33/45
f 59/33/46 54/32/46 52/32/46
f 60/34/47 59/33/47 61/33/47
f 62/35/48 61/33/48 52/32/48
f 64/36/49 63/34/49 61/33/49
f 66/37/50 65/38/50 63/34/50
f 68/38/51 60/34/51 63/34/51
f 66/37/52 72/40/52 67/39/52
f 69/39/53 68/38/53 65/38/53
f 68/38/84 70/38/84 58/34/84
f 69/39/55 71/39/55 70/38/55
f 24/12/56 71/39/56 69/39/56
f 21/12/57 69/39/57 67/39/57
f 72/40/58 16/11/58 18/12/58
f 74/37/59 73/40/59 72/40/59
f 73/40/60 14/11/60 16/11/60
f 74/37/61 76/37/61 75/40/61
f 75/40/62 12/11/62 14/11/62
f 77/36/63 76/37/63 74/37/63
f 78/35/64 77/36/64 79/36/64
f 62/35/65 80/35/65 79/36/65
f 79/36/66 74/37/66 66/37/66
f 83/31/67 81/31/67 80/35/67
f 84/31/68 78/35/68 80/35/68
f 82/29/69 85/29/69 84/31/69
f 82/29/70 81/31/70 83/31/70
f 86/28/71 85/29/71 82/29/71
f 89/27/72 87/27/72 86/28/72
f 89/27/73 88/28/73 49/28/73
f 88/28/74 82/29/74 51/29/74
f 93/23/75 87/27/75 89/27/75
f 90/23/76 89/27/76 47/27/76
f 94/21/77 93/23/77 90/23/77
f 35/21/78 91/21/78 90/23/78
f 95/20/79 94/21/79 91/21/79
f 6/2/80 9/2/80 95/20/80
f 6/2/81 96/20/81 33/20/81
f 33/20/82 96/20/82 91/21/82
