# Blender 5.0.1
# www.blender.org
mtllib ship_frame_FL.mtl
o ship_frame_FL
v -0.800006 2.043147 6.530017
v -0.800006 2.243147 6.530017
v -1.000006 2.043147 6.530017
v -1.000006 2.243147 6.530017
v -0.800006 2.043147 2.530017
v -0.800006 2.243147 2.530017
v -1.000006 2.043147 2.530017
v -1.000006 2.243147 2.530017
v -6.636680 2.043147 2.510493
v -6.636680 2.243147 2.510493
v -6.636680 2.043147 2.310493
v -6.636680 2.243147 2.310493
v 0.363319 2.043147 2.510493
v 0.363319 2.243147 2.510493
v 0.363319 2.043147 2.310493
v 0.363319 2.243147 2.310493
v -6.636680 2.043147 4.302849
v -6.636680 2.243147 4.302849
v -6.636680 2.043147 4.102849
v -6.636680 2.243147 4.102849
v 0.363319 2.043147 4.302849
v 0.363319 2.243147 4.302849
v 0.363319 2.043147 4.102849
v 0.363319 2.243147 4.102849
v -3.111774 2.043147 6.530017
v -3.111774 2.243147 6.530017
v -3.311774 2.043147 6.530017
v -3.311774 2.243147 6.530017
v -3.111774 2.043147 2.530017
v -3.111774 2.243147 2.530017
v -3.311774 2.043147 2.530017
v -3.311774 2.243147 2.530017
v -6.560148 1.719081 4.426261
v -6.560148 2.096784 4.106921
v -6.560148 1.719081 0.082808
v -6.560148 2.096784 0.082808
v -6.405384 1.719081 4.426261
v -6.405384 2.096784 4.106921
v -6.405384 1.719081 0.082808
v -6.405384 2.096784 0.082808
vn -0.0000 -0.0000 1.0000
vn -1.0000 -0.0000 -0.0000
vn -0.0000 -0.0000 -1.0000
vn 1.0000 -0.0000 -0.0000
vn -0.0000 -1.0000 -0.0000
vn -0.0000 1.0000 -0.0000
vn -0.0000 0.6456 0.7636
vt 0.625000 0.000000
vt 0.375000 0.250000
vt 0.375000 0.000000
vt 0.625000 0.250000
vt 0.375000 0.500000
vt 0.625000 0.500000
vt 0.375000 0.750000
vt 0.625000 0.750000
vt 0.375000 1.000000
vt 0.125000 0.750000
vt 0.125000 0.500000
vt 0.875000 0.500000
vt 0.625000 1.000000
vt 0.875000 0.750000
s 0
f 2/1/1 3/2/1 1/3/1
f 4/4/2 7/5/2 3/2/2
f 8/6/3 5/7/3 7/5/3
f 6/8/4 1/9/4 5/7/4
f 7/5/5 1/10/5 3/11/5
f 4/12/6 6/8/6 8/6/6
f 10/1/2 11/2/2 9/3/2
f 12/4/3 15/5/3 11/2/3
f 16/6/4 13/7/4 15/5/4
f 14/8/1 9/9/1 13/7/1
f 15/5/5 9/10/5 11/11/5
f 12/12/6 14/8/6 16/6/6
f 18/1/2 19/2/2 17/3/2
f 20/4/3 23/5/3 19/2/3
f 24/6/4 21/7/4 23/5/4
f 22/8/1 17/9/1 21/7/1
f 23/5/5 17/10/5 19/11/5
f 20/12/6 22/8/6 24/6/6
f 26/1/1 27/2/1 25/3/1
f 28/4/2 31/5/2 27/2/2
f 32/6/3 29/7/3 31/5/3
f 30/8/4 25/9/4 29/7/4
f 31/5/5 25/10/5 27/11/5
f 28/12/6 30/8/6 32/6/6
f 34/1/2 35/2/2 33/3/2
f 36/4/3 39/5/3 35/2/3
f 39/5/4 38/8/4 37/7/4
f 38/8/7 33/9/7 37/7/7
f 39/5/5 33/10/5 35/11/5
f 36/12/6 38/8/6 40/6/6
f 2/1/1 4/4/1 3/2/1
f 4/4/2 8/6/2 7/5/2
f 8/6/3 6/8/3 5/7/3
f 6/8/4 2/13/4 1/9/4
f 7/5/5 5/7/5 1/10/5
f 4/12/6 2/14/6 6/8/6
f 10/1/2 12/4/2 11/2/2
f 12/4/3 16/6/3 15/5/3
f 16/6/4 14/8/4 13/7/4
f 14/8/1 10/13/1 9/9/1
f 15/5/5 13/7/5 9/10/5
f 12/12/6 10/14/6 14/8/6
f 18/1/2 20/4/2 19/2/2
f 20/4/3 24/6/3 23/5/3
f 24/6/4 22/8/4 21/7/4
f 22/8/1 18/13/1 17/9/1
f 23/5/5 21/7/5 17/10/5
f 20/12/6 18/14/6 22/8/6
f 26/1/1 28/4/1 27/2/1
f 28/4/2 32/6/2 31/5/2
f 32/6/3 30/8/3 29/7/3
f 30/8/4 26/13/4 25/9/4
f 31/5/5 29/7/5 25/10/5
f 28/12/6 26/14/6 30/8/6
f 34/1/2 36/4/2 35/2/2
f 36/4/3 40/6/3 39/5/3
f 39/5/4 40/6/4 38/8/4
f 38/8/7 34/13/7 33/9/7
f 39/5/5 37/7/5 33/10/5
f 36/12/6 34/14/6 38/8/6
