# Blender 5.0.1
# www.blender.org
o Plane
v -0.800000 0.000000 -1.536907
v 0.800000 0.000000 -1.539172
v 0.800000 0.000000 -1.539172
v 0.000000 0.700000 0.200000
v -0.800000 0.000000 -1.536907
v -1.300000 -0.400000 1.500000
v 1.300000 -0.400000 1.500000
v -2.500000 0.000000 0.300000
v 2.500000 0.000000 0.300000
v 1.200000 0.350000 1.500000
v -1.200000 0.350000 1.500000
v -2.000000 0.000000 1.250000
v 2.000000 0.000000 1.250000
v 0.000000 -0.400000 1.500000
v 0.000000 0.350000 1.500000
v 0.200000 0.200000 1.500000
v -0.200000 0.200000 1.500000
v 0.800000 0.200000 1.500000
v -0.800000 0.200000 1.500000
v -0.800000 -0.250000 1.500000
v 0.800000 -0.250000 1.500000
v 0.200000 -0.250000 1.500000
v -0.200000 -0.250000 1.500000
v -0.200000 -0.250000 1.500000
v -0.200000 0.200000 1.500000
v -0.800000 0.200000 1.500000
v -0.800000 -0.250000 1.500000
v 0.200000 -0.250000 1.500000
v 0.800000 -0.250000 1.500000
v 0.800000 0.200000 1.500000
v 0.200000 0.200000 1.500000
v -0.200000 -0.250000 1.410000
v -0.200000 0.200000 1.410000
v -0.800000 0.200000 1.410000
v -0.800000 -0.250000 1.410000
v 0.200000 -0.250000 1.410000
v 0.800000 -0.250000 1.410000
v 0.800000 0.200000 1.410000
v 0.200000 0.200000 1.410000
vn -0.0005 0.9276 -0.3736
vn -0.0000 0.9914 0.1306
vn 0.1685 0.9733 0.1559
vn -0.1686 0.9733 0.1558
vn -0.0000 0.9914 0.1305
vn 0.0002 0.9914 0.1305
vn 0.2692 -0.9630 -0.0108
vn -0.3147 -0.0420 -0.9483
vn 0.3147 -0.0420 -0.9483
vn 0.4506 -0.8606 -0.2372
vn 0.5508 0.7827 -0.2899
vn 0.2703 0.9298 -0.2499
vn -0.4506 -0.8606 -0.2372
vn -0.5508 0.7827 -0.2899
vn -0.0000 -0.9656 -0.2600
vn -0.0000 0.9656 0.2600
vn -0.0000 1.0000 -0.0000
vn -0.0000 -0.0000 -1.0000
vn -0.0000 -0.0000 1.0000
vn -1.0000 -0.0000 -0.0000
vn 1.0000 -0.0000 -0.0000
vn -0.0000 -1.0000 -0.0000
vn 0.2703 -0.9297 0.2502
vn 0.2692 0.9630 0.0108
vt 0.000000 0.000000
s 0
f 1/1/1 4/1/1 3/1/1
f 6/1/2 14/1/2 5/1/2
f 6/1/3 5/1/3 8/1/3
f 7/1/4 9/1/4 3/1/4
f 3/1/5 14/1/5 7/1/5
f 14/1/6 3/1/6 5/1/6
f 8/1/7 4/1/7 11/1/7
f 10/1/8 13/1/8 7/1/8
f 11/1/9 6/1/9 12/1/9
f 11/1/10 12/1/10 8/1/10
f 8/1/11 12/1/11 6/1/11
f 4/1/12 9/1/12 3/1/12
f 10/1/13 9/1/13 13/1/13
f 9/1/14 7/1/14 13/1/14
f 4/1/15 15/1/15 11/1/15
f 4/1/16 15/1/16 10/1/16
f 19/1/17 27/1/17 26/1/17
f 22/1/17 29/1/17 28/1/17
f 15/1/18 19/1/18 11/1/18
f 18/1/19 15/1/19 16/1/19
f 16/1/19 23/1/19 22/1/19
f 14/1/18 21/1/18 7/1/18
f 14/1/18 20/1/18 23/1/18
f 11/1/18 20/1/18 6/1/18
f 21/1/19 10/1/19 18/1/19
f 30/1/20 37/1/20 29/1/20
f 28/1/21 39/1/21 31/1/21
f 23/1/17 25/1/17 24/1/17
f 16/1/17 28/1/17 31/1/17
f 21/1/17 30/1/17 29/1/17
f 20/1/17 24/1/17 27/1/17
f 17/1/17 26/1/17 25/1/17
f 18/1/17 31/1/17 30/1/17
f 33/1/19 35/1/19 32/1/19
f 37/1/19 39/1/19 36/1/19
f 24/1/17 35/1/17 27/1/17
f 26/1/22 33/1/22 25/1/22
f 31/1/22 38/1/22 30/1/22
f 29/1/17 36/1/17 28/1/17
f 27/1/21 34/1/21 26/1/21
f 25/1/20 32/1/20 24/1/20
f 8/1/23 5/1/23 4/1/23
f 4/1/24 10/1/24 9/1/24
f 19/1/17 20/1/17 27/1/17
f 22/1/17 21/1/17 29/1/17
f 15/1/18 17/1/18 19/1/18
f 18/1/19 10/1/19 15/1/19
f 16/1/19 15/1/19 17/1/19
f 17/1/19 23/1/19 16/1/19
f 23/1/19 14/1/19 22/1/19
f 14/1/18 22/1/18 21/1/18
f 14/1/18 6/1/18 20/1/18
f 11/1/18 19/1/18 20/1/18
f 21/1/19 7/1/19 10/1/19
f 30/1/20 38/1/20 37/1/20
f 28/1/21 36/1/21 39/1/21
f 23/1/17 17/1/17 25/1/17
f 16/1/17 22/1/17 28/1/17
f 21/1/17 18/1/17 30/1/17
f 20/1/17 23/1/17 24/1/17
f 17/1/17 19/1/17 26/1/17
f 18/1/17 16/1/17 31/1/17
f 33/1/19 34/1/19 35/1/19
f 37/1/19 38/1/19 39/1/19
f 24/1/17 32/1/17 35/1/17
f 26/1/22 34/1/22 33/1/22
f 31/1/22 39/1/22 38/1/22
f 29/1/17 37/1/17 36/1/17
f 27/1/21 35/1/21 34/1/21
f 25/1/20 33/1/20 32/1/20
l 1 2
l 2 3
l 1 5
