# Blender 5.0.1
# www.blender.org
mtllib ship_frame_FR.mtl
o ship_frame_FR
v -0.800006 2.043147 -6.530017
v -0.800006 2.243147 -6.530017
v -1.000006 2.043147 -6.530017
v -1.000006 2.243147 -6.530017
v -0.800006 2.043147 -2.530017
v -0.800006 2.243147 -2.530017
v -1.000006 2.043147 -2.530017
v -1.000006 2.243147 -2.530017
v -6.636680 2.043147 -2.510493
v -6.636680 2.243147 -2.510493
v -6.636680 2.043147 -2.310493
v -6.636680 2.243147 -2.310493
v 0.363319 2.043147 -2.510493
v 0.363319 2.243147 -2.510493
v 0.363319 2.043147 -2.310493
v 0.363319 2.243147 -2.310493
v -6.636680 2.043147 -4.302848
v -6.636680 2.243147 -4.302848
v -6.636680 2.043147 -4.102849
v -6.636680 2.243147 -4.102849
v 0.363319 2.043147 -4.302849
v 0.363319 2.243147 -4.302849
v 0.363319 2.043147 -4.102849
v 0.363319 2.243147 -4.102849
v -3.111775 2.043147 -6.530017
v -3.111775 2.243147 -6.530017
v -3.311775 2.043147 -6.530017
v -3.311775 2.243147 -6.530017
v -3.111774 2.043147 -2.530017
v -3.111774 2.243147 -2.530017
v -3.311774 2.043147 -2.530017
v -3.311774 2.243147 -2.530017
v -6.560148 1.719081 -4.426260
v -6.560148 2.096784 -4.106920
v -6.560148 1.719081 -0.082807
v -6.560148 2.096784 -0.082807
v -6.405384 1.719081 -4.426260
v -6.405384 2.096784 -4.106920
v -6.405384 1.719081 -0.082807
v -6.405384 2.096784 -0.082807
vn -0.0000 -0.0000 -1.0000
vn -1.0000 -0.0000 -0.0000
vn -0.0000 -0.0000 1.0000
vn 1.0000 -0.0000 -0.0000
vn -0.0000 -1.0000 -0.0000
vn -0.0000 1.0000 -0.0000
vn -0.0000 0.6456 -0.7636
vt 0.375000 0.250000
vt 0.625000 0.000000
vt 0.375000 0.000000
vt 0.375000 0.500000
vt 0.625000 0.250000
vt 0.375000 0.750000
vt 0.625000 0.500000
vt 0.375000 1.000000
vt 0.625000 0.750000
vt 0.125000 0.750000
vt 0.125000 0.500000
vt 0.875000 0.500000
vt 0.625000 1.000000
vt 0.875000 0.750000
s 0
f 3/1/1 2/2/1 1/3/1
f 7/4/2 4/5/2 3/1/2
f 5/6/3 8/7/3 7/4/3
f 1/8/4 6/9/4 5/6/4
f 1/10/5 7/4/5 3/11/5
f 6/9/6 4/12/6 8/7/6
f 11/1/2 10/2/2 9/3/2
f 15/4/3 12/5/3 11/1/3
f 13/6/4 16/7/4 15/4/4
f 9/8/1 14/9/1 13/6/1
f 9/10/5 15/4/5 11/11/5
f 14/9/6 12/12/6 16/7/6
f 19/1/2 18/2/2 17/3/2
f 23/4/3 20/5/3 19/1/3
f 21/6/4 24/7/4 23/4/4
f 17/8/1 22/9/1 21/6/1
f 17/10/5 23/4/5 19/11/5
f 22/9/6 20/12/6 24/7/6
f 27/1/1 26/2/1 25/3/1
f 31/4/2 28/5/2 27/1/2
f 29/6/3 32/7/3 31/4/3
f 25/8/4 30/9/4 29/6/4
f 25/10/5 31/4/5 27/11/5
f 30/9/6 28/12/6 32/7/6
f 35/1/2 34/2/2 33/3/2
f 39/4/3 36/5/3 35/1/3
f 39/4/4 38/9/4 40/7/4
f 33/8/7 38/9/7 37/6/7
f 33/10/5 39/4/5 35/11/5
f 38/9/6 36/12/6 40/7/6
f 3/1/1 4/5/1 2/2/1
f 7/4/2 8/7/2 4/5/2
f 5/6/3 6/9/3 8/7/3
f 1/8/4 2/13/4 6/9/4
f 1/10/5 5/6/5 7/4/5
f 6/9/6 2/14/6 4/12/6
f 11/1/2 12/5/2 10/2/2
f 15/4/3 16/7/3 12/5/3
f 13/6/4 14/9/4 16/7/4
f 9/8/1 10/13/1 14/9/1
f 9/10/5 13/6/5 15/4/5
f 14/9/6 10/14/6 12/12/6
f 19/1/2 20/5/2 18/2/2
f 23/4/3 24/7/3 20/5/3
f 21/6/4 22/9/4 24/7/4
f 17/8/1 18/13/1 22/9/1
f 17/10/5 21/6/5 23/4/5
f 22/9/6 18/14/6 20/12/6
f 27/1/1 28/5/1 26/2/1
f 31/4/2 32/7/2 28/5/2
f 29/6/3 30/9/3 32/7/3
f 25/8/4 26/13/4 30/9/4
f 25/10/5 29/6/5 31/4/5
f 30/9/6 26/14/6 28/12/6
f 35/1/2 36/5/2 34/2/2
f 39/4/3 40/7/3 36/5/3
f 39/4/4 37/6/4 38/9/4
f 33/8/7 34/13/7 38/9/7
f 33/10/5 37/6/5 39/4/5
f 38/9/6 34/14/6 36/12/6
