# Blender 5.0.1
# www.blender.org
mtllib ship_panel_side_LF.mtl
o ship_panel_side_LF
v -7.652635 2.338238 6.942373
v -8.644953 1.251175 5.454768
v -3.419586 1.253165 10.949305
v 1.010939 0.590299 12.977839
v -3.323734 -0.042764 10.086724
v -9.368220 -0.617618 1.979103
v -9.492246 0.288843 4.166021
v -8.639723 1.236219 5.456846
v -7.616938 2.336577 6.908697
v -3.417031 2.297344 10.950519
v 0.809123 1.388667 12.977469
v -7.616516 2.327202 6.909607
v -8.602980 1.245100 5.428285
v -3.443823 1.243111 10.991865
v 0.989061 0.582757 13.022161
v -3.280519 -0.028124 10.066276
v -9.349648 -0.574368 1.962234
v -9.469827 0.328372 4.145167
v -8.608210 1.260056 5.426207
v -7.652213 2.328862 6.943283
v -3.446378 2.292045 10.990651
v 0.807905 1.388601 13.023076
vn 0.4181 0.5246 -0.7417
vn 0.4271 0.1076 -0.8978
vn -0.6648 -0.3210 0.6746
vn 0.6934 -0.0009 -0.7205
vn -0.3706 -0.8653 0.3376
vn -0.4107 -0.5706 0.7112
vn -0.4263 -0.0969 0.8994
vn 0.6655 0.3150 -0.6767
vn -0.6934 -0.0009 0.7205
vn 0.3723 0.8647 -0.3371
vn -0.2478 0.9555 0.1604
vn -0.8257 0.5450 0.1454
vn 0.2617 -0.9562 -0.1315
vn -0.9271 0.3257 -0.1857
vn -0.0691 0.9943 0.0808
vn 0.2046 0.9788 0.0069
vn -0.4687 0.8337 -0.2920
vn 0.8661 0.1942 0.4606
vn 0.4325 -0.0000 -0.9017
vn -0.6443 -0.4562 0.6138
vn 0.7051 0.2298 -0.6709
vn -0.4311 -0.0000 0.9023
vn 0.6324 0.5074 -0.5853
vn -0.7009 -0.2949 0.6494
vn 0.1911 -0.9789 -0.0722
vn -0.6595 0.7453 -0.0985
vn 0.7115 -0.4986 -0.4951
vn -0.8938 0.3940 -0.2140
vn -0.1024 0.9880 0.1160
vn 0.1092 0.9720 0.2082
vn 0.6600 -0.7447 0.0995
vn 0.9692 0.2450 0.0262
vt 0.000000 0.000000
s 0
f 4/1/1 5/1/1 3/1/1
f 3/1/2 11/1/2 4/1/2
f 5/1/3 8/1/3 7/1/3
f 3/1/4 9/1/4 10/1/4
f 6/1/5 5/1/5 7/1/5
f 15/1/6 14/1/6 16/1/6
f 22/1/7 14/1/7 15/1/7
f 19/1/8 16/1/8 18/1/8
f 20/1/9 14/1/9 21/1/9
f 17/1/10 18/1/10 16/1/10
f 5/1/11 15/1/11 16/1/11
f 8/1/12 18/1/12 7/1/12
f 5/1/13 17/1/13 16/1/13
f 6/1/14 18/1/14 17/1/14
f 10/1/15 20/1/15 21/1/15
f 11/1/16 21/1/16 22/1/16
f 9/1/17 19/1/17 20/1/17
f 4/1/18 22/1/18 15/1/18
f 3/1/19 10/1/19 11/1/19
f 5/1/20 3/1/20 8/1/20
f 3/1/21 8/1/21 9/1/21
f 22/1/22 21/1/22 14/1/22
f 19/1/23 14/1/23 16/1/23
f 20/1/24 19/1/24 14/1/24
f 5/1/25 4/1/25 15/1/25
f 8/1/26 19/1/26 18/1/26
f 5/1/27 6/1/27 17/1/27
f 6/1/28 7/1/28 18/1/28
f 10/1/29 9/1/29 20/1/29
f 11/1/30 10/1/30 21/1/30
f 9/1/31 8/1/31 19/1/31
f 4/1/32 11/1/32 22/1/32
l 1 2
l 2 3
l 1 8
l 1 9
l 12 13
l 13 14
l 12 19
l 12 20
