# Blender 5.0.1
# www.blender.org
mtllib ship_panel_top_RB.mtl
o ship_panel_top_RB
v 3.323403 1.520996 -12.019114
v 0.807905 1.388601 -13.023076
v 8.705373 2.603648 -4.000000
v -1.164935 3.580431 -2.088328
v 3.304617 1.471335 -11.991005
v 0.795668 1.338380 -12.991005
v 8.702687 2.554537 -3.991004
v -1.167620 3.531320 -2.079333
vn 0.0633 0.9825 -0.1751
vn -0.0248 -0.9809 0.1927
vn -0.9833 0.0206 -0.1811
vn 0.3314 -0.5638 -0.7565
vn 0.7396 -0.5210 -0.4261
vn 0.2033 0.1656 0.9650
vn 0.0250 0.9811 -0.1921
vn -0.0632 -0.9824 0.1757
vn -0.9739 0.1109 -0.1979
vn 0.3330 -0.5567 -0.7610
vn 0.8292 -0.1443 -0.5400
vt 0.625000 0.500000
vt 0.708001 0.562183
vt 0.625000 0.562183
vt 0.708001 0.500000
s 0
f 1/1/1 4/2/1 3/3/1
f 5/1/2 8/2/2 6/4/2
f 4/2/3 6/4/3 8/2/3
f 2/4/4 5/1/4 6/4/4
f 3/3/5 5/1/5 1/1/5
f 3/3/6 8/2/6 7/3/6
f 1/1/7 2/4/7 4/2/7
f 5/1/8 7/3/8 8/2/8
f 4/2/9 2/4/9 6/4/9
f 2/4/10 1/1/10 5/1/10
f 3/3/11 7/3/11 5/1/11
f 3/3/6 4/2/6 8/2/6
