# Blender 5.0.1
# www.blender.org
mtllib ship_frame_CF.mtl
o ship_frame_CF
v -1.636122 0.136636 1.430582
v -1.636122 0.636636 1.430582
v -4.136122 0.136636 1.430582
v -4.136122 0.636636 1.430582
v -1.636122 0.136636 1.230582
v -1.636122 0.636636 1.230582
v -4.136122 0.136636 1.230582
v -4.136122 0.636636 1.230582
v -1.636122 0.136636 -1.430582
v -1.636122 0.636636 -1.430582
v -4.136122 0.136636 -1.430581
v -4.136122 0.636636 -1.430581
v -1.636122 0.136636 -1.230582
v -1.636122 0.636636 -1.230582
v -4.136122 0.136636 -1.230581
v -4.136122 0.636636 -1.230581
v -7.290816 1.627227 0.100000
v -7.290816 1.909888 0.100000
v -7.290816 1.627227 -0.100000
v -7.290816 1.909888 -0.100000
v -4.165587 1.627227 0.100000
v -4.165587 1.909888 0.100000
v -4.165587 1.627227 -0.100000
v -4.165587 1.909888 -0.100000
v -7.299581 0.354910 0.100000
v -7.299581 0.637570 0.100000
v -7.299581 0.354910 -0.100000
v -7.299581 0.637570 -0.100000
v -4.165587 0.354910 0.100000
v -4.165587 0.637570 0.100000
v -4.165587 0.354910 -0.100000
v -4.165587 0.637570 -0.100000
v -4.180723 0.357698 1.500000
v -4.180723 0.657698 1.500000
v -4.180723 0.357698 -1.500000
v -4.180723 0.657698 -1.500000
v -3.980723 0.357698 1.500000
v -3.980723 0.657698 1.500000
v -3.980723 0.357698 -1.500000
v -3.980723 0.657698 -1.500000
v -4.180723 1.615461 1.500000
v -4.180723 1.915462 1.500000
v -4.180723 1.615461 -1.500000
v -4.180723 1.915462 -1.500000
v -3.980723 1.615461 1.500000
v -3.980723 1.915462 1.500000
v -3.980723 1.615461 -1.500000
v -3.980723 1.915462 -1.500000
v -1.636122 1.605109 1.430582
v -1.636122 2.105109 1.430582
v -4.136122 1.605109 1.430582
v -4.136122 2.105109 1.430582
v -1.636122 1.605109 1.230582
v -1.636122 2.105109 1.230582
v -4.136122 1.605109 1.230582
v -4.136122 2.105109 1.230582
v -1.636122 1.605109 -1.430582
v -1.636122 2.105109 -1.430582
v -4.136122 1.605109 -1.430581
v -4.136122 2.105109 -1.430581
v -1.636122 1.605109 -1.230582
v -1.636122 2.105109 -1.230582
v -4.136122 1.605109 -1.230581
v -4.136122 2.105109 -1.230581
v -6.560149 0.277205 4.426262
v -6.560149 0.654908 4.106922
v -6.560149 0.277205 0.082808
v -6.560149 0.654908 0.082808
v -6.405384 0.277205 4.426262
v -6.405384 0.654908 4.106922
v -6.405384 0.277205 0.082808
v -6.405384 0.654908 0.082808
v -6.560149 0.277205 -4.426261
v -6.560149 0.654908 -4.106921
v -6.560149 0.277205 -0.082808
v -6.560149 0.654908 -0.082808
v -6.405384 0.277205 -4.426261
v -6.405384 0.654908 -4.106921
v -6.405384 0.277205 -0.082808
v -6.405384 0.654908 -0.082808
vn -0.0000 -0.0000 1.0000
vn -1.0000 -0.0000 -0.0000
vn -0.0000 -0.0000 -1.0000
vn 1.0000 -0.0000 -0.0000
vn -0.0000 -1.0000 -0.0000
vn -0.0000 1.0000 -0.0000
vn -0.0000 0.6456 0.7636
vn -0.0000 0.6456 -0.7636
vt 0.625000 0.000000
vt 0.375000 0.250000
vt 0.375000 0.000000
vt 0.625000 0.250000
vt 0.375000 0.500000
vt 0.625000 0.500000
vt 0.375000 0.750000
vt 0.625000 0.750000
vt 0.375000 1.000000
vt 0.125000 0.500000
vt 0.125000 0.750000
vt 0.875000 0.500000
vt 0.625000 1.000000
vt 0.875000 0.750000
s 0
f 2/1/1 3/2/1 1/3/1
f 4/4/2 7/5/2 3/2/2
f 8/6/3 5/7/3 7/5/3
f 6/8/4 1/9/4 5/7/4
f 3/10/5 5/7/5 1/11/5
f 4/12/6 6/8/6 8/6/6
f 11/2/3 10/1/3 9/3/3
f 15/5/2 12/4/2 11/2/2
f 13/7/1 16/6/1 15/5/1
f 9/9/4 14/8/4 13/7/4
f 9/11/5 15/5/5 11/10/5
f 14/8/6 12/12/6 16/6/6
f 18/1/2 19/2/2 17/3/2
f 20/4/3 23/5/3 19/2/3
f 24/6/4 21/7/4 23/5/4
f 22/8/1 17/9/1 21/7/1
f 23/5/5 17/11/5 19/10/5
f 20/12/6 22/8/6 24/6/6
f 26/1/2 27/2/2 25/3/2
f 28/4/3 31/5/3 27/2/3
f 32/6/4 29/7/4 31/5/4
f 30/8/1 25/9/1 29/7/1
f 31/5/5 25/11/5 27/10/5
f 28/12/6 30/8/6 32/6/6
f 34/1/2 35/2/2 33/3/2
f 36/4/3 39/5/3 35/2/3
f 40/6/4 37/7/4 39/5/4
f 38/8/1 33/9/1 37/7/1
f 35/10/5 37/7/5 33/11/5
f 36/12/6 38/8/6 40/6/6
f 42/1/2 43/2/2 41/3/2
f 44/4/3 47/5/3 43/2/3
f 48/6/4 45/7/4 47/5/4
f 46/8/1 41/9/1 45/7/1
f 43/10/5 45/7/5 41/11/5
f 44/12/6 46/8/6 48/6/6
f 50/1/1 51/2/1 49/3/1
f 52/4/2 55/5/2 51/2/2
f 56/6/3 53/7/3 55/5/3
f 54/8/4 49/9/4 53/7/4
f 51/10/5 53/7/5 49/11/5
f 52/12/6 54/8/6 56/6/6
f 59/2/3 58/1/3 57/3/3
f 63/5/2 60/4/2 59/2/2
f 61/7/1 64/6/1 63/5/1
f 57/9/4 62/8/4 61/7/4
f 57/11/5 63/5/5 59/10/5
f 62/8/6 60/12/6 64/6/6
f 66/1/2 67/2/2 65/3/2
f 68/4/3 71/5/3 67/2/3
f 71/5/4 70/8/4 69/7/4
f 70/8/7 65/9/7 69/7/7
f 71/5/5 65/11/5 67/10/5
f 68/12/6 70/8/6 72/6/6
f 75/2/2 74/1/2 73/3/2
f 79/5/1 76/4/1 75/2/1
f 79/5/4 78/8/4 80/6/4
f 73/9/8 78/8/8 77/7/8
f 73/11/5 79/5/5 75/10/5
f 78/8/6 76/12/6 80/6/6
f 2/1/1 4/4/1 3/2/1
f 4/4/2 8/6/2 7/5/2
f 8/6/3 6/8/3 5/7/3
f 6/8/4 2/13/4 1/9/4
f 3/10/5 7/5/5 5/7/5
f 4/12/6 2/14/6 6/8/6
f 11/2/3 12/4/3 10/1/3
f 15/5/2 16/6/2 12/4/2
f 13/7/1 14/8/1 16/6/1
f 9/9/4 10/13/4 14/8/4
f 9/11/5 13/7/5 15/5/5
f 14/8/6 10/14/6 12/12/6
f 18/1/2 20/4/2 19/2/2
f 20/4/3 24/6/3 23/5/3
f 24/6/4 22/8/4 21/7/4
f 22/8/1 18/13/1 17/9/1
f 23/5/5 21/7/5 17/11/5
f 20/12/6 18/14/6 22/8/6
f 26/1/2 28/4/2 27/2/2
f 28/4/3 32/6/3 31/5/3
f 32/6/4 30/8/4 29/7/4
f 30/8/1 26/13/1 25/9/1
f 31/5/5 29/7/5 25/11/5
f 28/12/6 26/14/6 30/8/6
f 34/1/2 36/4/2 35/2/2
f 36/4/3 40/6/3 39/5/3
f 40/6/4 38/8/4 37/7/4
f 38/8/1 34/13/1 33/9/1
f 35/10/5 39/5/5 37/7/5
f 36/12/6 34/14/6 38/8/6
f 42/1/2 44/4/2 43/2/2
f 44/4/3 48/6/3 47/5/3
f 48/6/4 46/8/4 45/7/4
f 46/8/1 42/13/1 41/9/1
f 43/10/5 47/5/5 45/7/5
f 44/12/6 42/14/6 46/8/6
f 50/1/1 52/4/1 51/2/1
f 52/4/2 56/6/2 55/5/2
f 56/6/3 54/8/3 53/7/3
f 54/8/4 50/13/4 49/9/4
f 51/10/5 55/5/5 53/7/5
f 52/12/6 50/14/6 54/8/6
f 59/2/3 60/4/3 58/1/3
f 63/5/2 64/6/2 60/4/2
f 61/7/1 62/8/1 64/6/1
f 57/9/4 58/13/4 62/8/4
f 57/11/5 61/7/5 63/5/5
f 62/8/6 58/14/6 60/12/6
f 66/1/2 68/4/2 67/2/2
f 68/4/3 72/6/3 71/5/3
f 71/5/4 72/6/4 70/8/4
f 70/8/7 66/13/7 65/9/7
f 71/5/5 69/7/5 65/11/5
f 68/12/6 66/14/6 70/8/6
f 75/2/2 76/4/2 74/1/2
f 79/5/1 80/6/1 76/4/1
f 79/5/4 77/7/4 78/8/4
f 73/9/8 74/13/8 78/8/8
f 73/11/5 77/7/5 79/5/5
f 78/8/6 74/14/6 76/12/6
