# Blender 5.0.1
# www.blender.org
mtllib ship_panel_top_LF.mtl
o ship_panel_top_LF
v 0.807905 1.388601 13.023076
v -3.431705 2.294695 10.970585
v -7.584384 2.323744 6.970585
v -1.164935 3.580431 1.970669
v -5.204950 3.483150 1.970669
v -9.755164 2.768799 1.970669
v 0.795433 1.338186 12.992221
v -3.432377 2.244817 10.962696
v -7.576960 2.274915 6.962796
v -1.167855 3.531126 1.962890
v -5.202070 3.433572 1.962798
v -9.747739 2.719971 1.962880
vn -0.1533 0.9762 0.1534
vn 0.1259 0.9771 0.1713
vn 0.1532 -0.9762 -0.1534
vn -0.1271 -0.9769 -0.1716
vn -0.9055 -0.1976 0.3755
vn -0.0242 0.1539 -0.9878
vn 0.9831 -0.0297 -0.1809
vn -0.4677 -0.3744 0.8007
vn -0.6904 -0.1039 0.7160
vn -0.0038 0.1566 -0.9877
vn -0.1449 0.9768 0.1575
vn -0.0239 0.9905 0.1355
vn 0.1449 -0.9768 -0.1575
vn 0.0240 -0.9905 -0.1355
vn -0.0244 0.1553 -0.9876
vn 0.9730 -0.1199 -0.1974
vn -0.4520 -0.1334 0.8820
vn -0.6790 -0.2152 0.7019
vn -0.0038 0.1561 -0.9877
vt 0.749421 0.750000
vt 0.736485 0.684278
vt 0.749423 0.684278
vt 0.708001 0.684278
vt 0.736485 0.750000
vt 0.708001 0.750000
s 0
f 3/1/1 5/2/1 6/3/1
f 4/4/2 2/5/2 1/6/2
f 11/2/3 9/1/3 12/3/3
f 8/5/4 10/4/4 7/6/4
f 6/3/5 9/1/5 3/1/5
f 6/3/6 11/2/6 12/3/6
f 4/4/7 7/6/7 10/4/7
f 2/5/8 7/6/8 1/6/8
f 3/1/9 8/5/9 2/5/9
f 5/2/10 10/4/10 11/2/10
f 3/1/11 2/5/11 5/2/11
f 4/4/12 5/2/12 2/5/12
f 11/2/13 8/5/13 9/1/13
f 8/5/14 11/2/14 10/4/14
f 6/3/5 12/3/5 9/1/5
f 6/3/15 5/2/15 11/2/15
f 4/4/16 1/6/16 7/6/16
f 2/5/17 8/5/17 7/6/17
f 3/1/18 9/1/18 8/5/18
f 5/2/19 4/4/19 10/4/19
