# Blender 5.0.1
# www.blender.org
mtllib ship_panel_top_CF.mtl
o ship_panel_top_CF
v -1.164935 3.580431 1.970669
v -5.204950 3.483150 1.970669
v -9.755164 2.768799 1.970669
v -1.164935 3.580431 -2.088328
v -5.204950 3.483150 -2.088328
v -9.755383 2.768691 -2.088329
v -1.163732 3.530445 1.970669
v -5.200451 3.433244 1.970669
v -9.747409 2.719404 1.970669
v -1.163732 3.530445 -2.088328
v -5.200451 3.433244 -2.088328
v -9.747627 2.719296 -2.088328
vn -0.1551 0.9879 -0.0000
vn -0.0241 0.9997 -0.0000
vn 0.1551 -0.9879 -0.0000
vn 0.0241 -0.9997 -0.0000
vn -0.0000 -0.0000 1.0000
vn 0.9997 0.0241 -0.0000
vn -0.9879 -0.1551 0.0001
vn -0.0000 -0.0000 -1.0000
vt 0.749423 0.684278
vt 0.736485 0.562183
vt 0.749427 0.562183
vt 0.708001 0.562183
vt 0.736485 0.684278
vt 0.708001 0.684278
s 0
f 3/1/1 5/2/1 6/3/1
f 4/4/2 2/5/2 1/6/2
f 11/2/3 9/1/3 12/3/3
f 8/5/4 10/4/4 7/6/4
f 3/1/5 8/5/5 2/5/5
f 1/6/5 8/5/5 7/6/5
f 1/6/6 10/4/6 4/4/6
f 6/3/7 9/1/7 3/1/7
f 6/3/8 11/2/8 12/3/8
f 4/4/8 11/2/8 5/2/8
f 3/1/1 2/5/1 5/2/1
f 4/4/2 5/2/2 2/5/2
f 11/2/3 8/5/3 9/1/3
f 8/5/4 11/2/4 10/4/4
f 3/1/5 9/1/5 8/5/5
f 1/6/5 2/5/5 8/5/5
f 1/6/6 7/6/6 10/4/6
f 6/3/7 12/3/7 9/1/7
f 6/3/8 5/2/8 11/2/8
f 4/4/8 10/4/8 11/2/8
