# Blender 5.0.1
# www.blender.org
mtllib ship_aspid10_miss_rack.mtl
o ship_Aspid10_rocket_rack
v 4.901730 1.645565 -0.298548
v 4.901730 -0.354435 -0.298549
v 4.901730 1.645565 0.283662
v 4.901730 -0.354435 0.283661
v 7.914330 1.645565 -0.298548
v 7.914330 -0.354435 -0.298549
v 7.914330 1.645565 0.283662
v 7.914330 -0.354435 0.283661
v 4.974476 -0.371091 -0.243642
v 4.974476 -0.371091 0.233819
v 7.871973 -0.371091 0.233819
v 7.871973 -0.371091 -0.243642
v 4.974476 1.532495 -0.243641
v 4.974476 1.532495 0.233820
v 7.871973 1.532495 0.233820
v 7.871973 1.532495 -0.243641
vn -1.0000 -0.0000 -0.0000
vn -0.0000 -0.0000 1.0000
vn 1.0000 -0.0000 -0.0000
vn -0.0000 -0.0000 -1.0000
vn -0.0000 1.0000 -0.0000
vn 0.3659 -0.9306 -0.0000
vn -0.2232 -0.9748 -0.0000
vn -0.0000 -0.9569 -0.2903
vn -0.0000 -0.9484 0.3169
vn -0.0000 -1.0000 -0.0000
vt 0.625000 0.000000
vt 0.375000 0.250000
vt 0.375000 0.000000
vt 0.625000 0.250000
vt 0.375000 0.500000
vt 0.625000 0.500000
vt 0.375000 0.750000
vt 0.625000 0.750000
vt 0.375000 1.000000
vt 0.125000 0.750000
vt 0.125000 0.500000
vt 0.625000 1.000000
vt 0.875000 0.500000
vt 0.875000 0.750000
s 0
f 2/1/1 3/2/1 1/3/1
f 4/4/2 7/5/2 3/2/2
f 8/6/3 5/7/3 7/5/3
f 6/8/4 1/9/4 5/7/4
f 7/5/5 1/10/5 3/11/5
f 8/6/6 12/8/6 6/8/6
f 12/8/2 13/12/2 9/12/2
f 4/4/7 9/1/7 10/4/7
f 6/8/8 9/12/8 2/12/8
f 8/6/9 10/4/9 11/6/9
f 14/13/10 16/8/10 15/6/10
f 10/4/4 15/6/4 11/6/4
f 11/6/1 16/8/1 12/8/1
f 9/1/3 14/4/3 10/4/3
f 2/1/1 4/4/1 3/2/1
f 4/4/2 8/6/2 7/5/2
f 8/6/3 6/8/3 5/7/3
f 6/8/4 2/12/4 1/9/4
f 7/5/5 5/7/5 1/10/5
f 8/6/6 11/6/6 12/8/6
f 12/8/2 16/8/2 13/12/2
f 4/4/7 2/1/7 9/1/7
f 6/8/8 12/8/8 9/12/8
f 8/6/9 4/4/9 10/4/9
f 14/13/10 13/14/10 16/8/10
f 10/4/4 14/4/4 15/6/4
f 11/6/1 15/6/1 16/8/1
f 9/1/3 13/1/3 14/4/3
