# Blender 5.0.1
# www.blender.org
mtllib ship_panel_bottom_RB.mtl
o ship_panel_bottom_RB
v 3.297970 0.604824 -11.985744
v 8.693800 -0.334917 -3.990040
v 0.992474 0.603320 -12.983076
v 3.206746 0.372774 -11.772377
v 8.437275 -0.413197 -3.992413
v 0.944411 0.309155 -12.740641
v -0.469770 -0.447875 -2.845495
v 3.323287 0.587091 -12.019211
v 8.716940 -0.374511 -4.009960
v 1.007526 0.569736 -13.016922
v 3.219102 0.327857 -11.790539
v 8.453182 -0.458105 -4.007587
v 0.953666 0.265474 -12.763142
v -0.469397 -0.497677 -2.849929
vn -0.5914 0.6593 0.4642
vn -0.3072 0.6346 0.7091
vn -0.0571 0.9960 0.0680
vn 0.2856 -0.9097 -0.3015
vn 0.3078 -0.6410 -0.7032
vn 0.0568 -0.9960 -0.0685
vn 0.4080 0.8976 -0.1670
vn 0.2663 0.7408 -0.6167
vn -0.9591 -0.0608 -0.2765
vn -0.9900 0.0051 -0.1411
vn 0.1248 -0.2776 0.9525
vn 0.1299 -0.3840 0.9141
vn -0.2812 0.9125 0.2970
vn -0.2950 0.7070 0.6428
vn 0.0084 0.9954 0.0950
vn 0.5970 -0.6521 -0.4673
vn 0.2994 -0.6960 -0.6526
vn -0.0079 -0.9954 -0.0952
vn 0.6919 0.6036 -0.3960
vn 0.1526 0.9164 -0.3701
vn -0.9433 -0.1054 -0.3149
vn -0.9800 -0.1300 -0.1507
vn 0.1276 -0.0870 0.9880
vn 0.0807 -0.2933 0.9526
vt 0.000000 0.000000
s 0
f 5/1/1 1/1/1 4/1/1
f 6/1/2 1/1/2 3/1/2
f 7/1/3 4/1/3 6/1/3
f 12/1/4 8/1/4 9/1/4
f 8/1/5 13/1/5 10/1/5
f 11/1/6 14/1/6 13/1/6
f 1/1/7 9/1/7 8/1/7
f 1/1/8 10/1/8 3/1/8
f 6/1/9 10/1/9 13/1/9
f 6/1/10 14/1/10 7/1/10
f 5/1/11 14/1/11 12/1/11
f 2/1/12 12/1/12 9/1/12
f 5/1/13 2/1/13 1/1/13
f 6/1/14 4/1/14 1/1/14
f 7/1/15 5/1/15 4/1/15
f 12/1/16 11/1/16 8/1/16
f 8/1/17 11/1/17 13/1/17
f 11/1/18 12/1/18 14/1/18
f 1/1/19 2/1/19 9/1/19
f 1/1/20 8/1/20 10/1/20
f 6/1/21 3/1/21 10/1/21
f 6/1/22 13/1/22 14/1/22
f 5/1/23 7/1/23 14/1/23
f 2/1/24 5/1/24 12/1/24
